<svg preserveAspectRatio="none" width="100%" height="100%" overflow="visible" style="display: block;" viewBox="0 0 24.328 11.3333" fill="none" xmlns="http://www.w3.org/2000/svg">
<g id="Battery">
<path id="Rectangle" opacity="0.35" d="M2.66699 0.5H19.333C20.5296 0.5 21.5 1.47037 21.5 2.66699V8.66699C21.4998 9.86346 20.5295 10.833 19.333 10.833H2.66699C1.47048 10.833 0.500176 9.86346 0.5 8.66699V2.66699C0.5 1.47038 1.47037 0.5 2.66699 0.5Z" stroke="var(--stroke-0, #1F1F1F)"/>
<path id="Combined Shape" opacity="0.4" d="M23 3.66667V7.66667C23.8047 7.32789 24.328 6.5398 24.328 5.66667C24.328 4.79353 23.8047 4.00544 23 3.66667" fill="var(--fill-0, #1F1F1F)"/>
<path id="Rectangle_2" d="M2 3.33333C2 2.59695 2.59695 2 3.33333 2H18.6667C19.403 2 20 2.59695 20 3.33333V8C20 8.73638 19.403 9.33333 18.6667 9.33333H3.33333C2.59695 9.33333 2 8.73638 2 8V3.33333Z" fill="var(--fill-0, #1F1F1F)"/>
</g>
</svg>
