<svg viewBox="0 0 24 24" fill="none" xmlns="http://www.w3.org/2000/svg">
<g id="mynaui:truck">
<path id="Vector" d="M9.20647 16.4549C9.20647 17.8599 8.09447 18.9999 6.72348 18.9999C5.35248 18.9999 4.24048 17.8599 4.24048 16.4539M9.20647 16.4549C9.20647 15.0499 8.09447 13.9089 6.72348 13.9089C5.35248 13.9089 4.24048 15.0489 4.24048 16.4539M9.20647 16.4549L14.7925 16.4539M4.24048 16.4539H2.99948V5.99995C2.99948 5.73473 3.10483 5.48038 3.29237 5.29284C3.4799 5.1053 3.73426 4.99995 3.99948 4.99995H13.7925C14.0577 4.99995 14.312 5.1053 14.4996 5.29284C14.6871 5.48038 14.7925 5.73473 14.7925 5.99995V8.18195M14.7925 16.4539H15.4135M14.7925 16.4539V8.18195M14.7925 8.18195H17.0535C17.3202 8.18198 17.5841 8.23534 17.8299 8.33889C18.0756 8.44245 18.2982 8.59411 18.4845 8.78495L20.9995 11.3639V16.4539H20.3785M20.3785 16.4539C20.3785 17.8599 19.2675 18.9999 17.8965 18.9999C16.5255 18.9999 15.4135 17.8599 15.4135 16.4539M20.3785 16.4539C20.3785 15.0489 19.2675 13.9089 17.8965 13.9089C16.5255 13.9089 15.4135 15.0489 15.4135 16.4539" stroke="var(--stroke-0, #1B8918)" stroke-width="1.5" stroke-linecap="round" stroke-linejoin="round"/>
</g>
</svg>
