<svg viewBox="0 0 48 48" fill="none" xmlns="http://www.w3.org/2000/svg">
<g id="Group">
<path id="Vector" d="M24.0547 0H23.9453C10.7207 0 0 10.7207 0 23.9453V24.0547C0 37.2793 10.7207 48 23.9453 48H24.0547C37.2793 48 48 37.2793 48 24.0547V23.9453C48 10.7207 37.2793 0 24.0547 0Z" fill="var(--fill-0, black)"/>
<g id="Group_2">
<path id="Vector_2" d="M36.1694 19.0635V23.5956C35.3773 23.5182 34.3481 23.3383 33.2096 22.9212C31.723 22.3764 30.6165 21.6314 29.8917 21.0546V30.2146L29.8732 30.1861C29.8849 30.3677 29.8917 30.5527 29.8917 30.7393C29.8917 35.2883 26.1903 38.9913 21.6397 38.9913C17.0891 38.9913 13.3877 35.2883 13.3877 30.7393C13.3877 26.1904 17.0891 22.4857 21.6397 22.4857C22.0853 22.4857 22.5226 22.521 22.9497 22.5899V27.0565C22.5394 26.9102 22.0988 26.8311 21.6397 26.8311C19.4855 26.8311 17.7315 28.5834 17.7315 30.7393C17.7315 32.8952 19.4855 34.6475 21.6397 34.6475C23.7939 34.6475 25.5479 32.8935 25.5479 30.7393C25.5479 30.6586 25.5462 30.5779 25.5412 30.4972V12.6967H30.0699C30.0867 13.0801 30.1019 13.4669 30.1187 13.8503C30.149 14.6054 30.418 15.3302 30.8872 15.9238C31.4371 16.6217 32.2494 17.4322 33.3895 18.0797C34.4574 18.6851 35.4597 18.9441 36.1694 19.0668V19.0635Z" fill="var(--fill-0, #FF004F)"/>
<path id="Vector_3" d="M34.6122 15.384V19.9161C33.8201 19.8387 32.7909 19.6588 31.6524 19.2417C30.1658 18.6969 29.0593 17.9519 28.3345 17.3751V26.5351L28.316 26.5066C28.3278 26.6882 28.3345 26.8732 28.3345 27.0598C28.3345 31.6088 24.6331 35.3118 20.0825 35.3118C15.5319 35.3118 11.8306 31.6088 11.8306 27.0598C11.8306 22.5109 15.5319 18.8062 20.0825 18.8062C20.5282 18.8062 20.9654 18.8415 21.3926 18.9104V23.377C20.9822 23.2307 20.5416 23.1516 20.0825 23.1516C17.9283 23.1516 16.1743 24.9039 16.1743 27.0598C16.1743 29.2157 17.9283 30.968 20.0825 30.968C22.2368 30.968 23.9907 29.2141 23.9907 27.0598C23.9907 26.9791 23.9891 26.8984 23.984 26.8177V9.01379H28.5128C28.5296 9.39722 28.5447 9.784 28.5615 10.1674C28.5918 10.9225 28.8609 11.6473 29.3301 12.2409C29.88 12.9388 30.6922 13.7494 31.8324 14.3968C32.9003 15.0006 33.9025 15.2612 34.6122 15.384Z" fill="var(--fill-0, #00F7EF)"/>
<path id="Vector_4" d="M35.6027 17.365V21.8971C34.8106 21.8197 33.7814 21.6398 32.6429 21.2227C31.1563 20.6779 30.0498 19.9329 29.325 19.3561V28.5162L29.3065 28.4876C29.3183 28.6692 29.325 28.8542 29.325 29.0408C29.325 33.5898 25.6236 37.2928 21.073 37.2928C16.5224 37.2928 12.821 33.5898 12.821 29.0408C12.821 24.4919 16.5224 20.7872 21.073 20.7872C21.5187 20.7872 21.9559 20.8225 22.383 20.8915V25.358C21.9727 25.2117 21.5321 25.1326 21.073 25.1326C18.9188 25.1326 17.1648 26.8849 17.1648 29.0408C17.1648 31.1967 18.9188 32.949 21.073 32.949C23.2272 32.949 24.9812 31.1951 24.9812 29.0408C24.9812 28.9601 24.9795 28.8794 24.9745 28.7987V10.9982H29.5032C29.5201 11.3816 29.5352 11.7684 29.552 12.1518C29.5823 12.9069 29.8513 13.6317 30.3205 14.2253C30.8704 14.9232 31.6827 15.7338 32.8229 16.3812C33.8907 16.9849 34.893 17.2456 35.6027 17.3683V17.365Z" fill="var(--fill-0, white)"/>
</g>
</g>
</svg>
