<svg viewBox="0 0 20.3567 21.5" fill="none" xmlns="http://www.w3.org/2000/svg">
<g id="Group">
<path id="Vector (Stroke)" d="M12.4319 10.75C12.4319 9.50736 11.4245 8.5 10.1819 8.5C8.93923 8.5 7.93187 9.50736 7.93187 10.75C7.93187 11.9926 8.93923 13 10.1819 13C11.4245 13 12.4319 11.9926 12.4319 10.75ZM13.9319 10.75C13.9319 12.8211 12.2529 14.5 10.1819 14.5C8.1108 14.5 6.43187 12.8211 6.43187 10.75C6.43187 8.67893 8.1108 7 10.1819 7C12.2529 7 13.9319 8.67893 13.9319 10.75Z" fill="var(--fill-0, black)"/>
<path id="Vector (Stroke)_2" d="M10.1778 6.23299e-06C10.6334 6.23299e-06 11.0131 -0.000604084 11.3233 0.020514C11.6403 0.0421074 11.9403 0.0887928 12.2306 0.208991C12.5643 0.347193 12.8677 0.550248 13.1231 0.80567C13.378 1.0606 13.5797 1.36335 13.7179 1.6963C13.8278 1.9598 13.8774 2.23432 13.9015 2.52442L13.919 2.82032V2.83008C13.9225 2.9771 13.9631 3.12104 14.0372 3.24805C14.109 3.37094 14.2103 3.47401 14.3312 3.54883C14.4581 3.61854 14.6003 3.65649 14.7452 3.65723C14.8922 3.65796 15.0371 3.62116 15.1661 3.55079L15.1749 3.5459C15.5325 3.357 15.8712 3.20724 16.2462 3.15723H16.2472C16.6053 3.10998 16.9695 3.13412 17.3185 3.22755C17.58 3.29761 17.8295 3.40544 18.0587 3.54786L18.2804 3.70215L18.2823 3.70313C18.5304 3.8945 18.7204 4.13008 18.8976 4.39356C19.0709 4.65136 19.2601 4.97963 19.4884 5.37403L19.4894 5.37598C19.7166 5.77038 19.9065 6.09875 20.0431 6.37794C20.1826 6.66309 20.292 6.94566 20.3331 7.25684C20.3804 7.61496 20.3562 7.97919 20.2628 8.32813C20.1694 8.67663 20.0077 9.00274 19.7882 9.28907C19.5569 9.59117 19.2547 9.81054 18.9181 10.0234L18.9151 10.0254C18.6445 10.1948 18.4928 10.4676 18.4903 10.7432C18.493 10.8891 18.5322 11.0324 18.6046 11.1592C18.6593 11.2549 18.7318 11.3388 18.8175 11.4072L18.9073 11.4707L18.9171 11.4766C19.2563 11.6901 19.5559 11.908 19.7872 12.208L19.7882 12.21C20.0079 12.4964 20.1694 12.8231 20.2628 13.1719C20.3562 13.5208 20.3804 13.8851 20.3331 14.2432C20.2925 14.5554 20.1827 14.8384 20.0431 15.1231C19.9061 15.4023 19.715 15.7309 19.4874 16.125C19.2596 16.5194 19.0709 16.8483 18.8976 17.1065C18.7205 17.3701 18.5304 17.6065 18.2813 17.7979H18.2804C17.9939 18.0176 17.6672 18.179 17.3185 18.2725C16.9695 18.3659 16.6053 18.39 16.2472 18.3428H16.2462C15.871 18.2928 15.5322 18.1434 15.1749 17.9541L15.1671 17.9492C15.0379 17.8787 14.8924 17.842 14.7452 17.8428C14.6011 17.8436 14.4595 17.8802 14.3331 17.9492C14.0927 18.0887 13.9306 18.3579 13.919 18.6787V18.6797C13.9042 19.0838 13.8637 19.452 13.7198 19.8008L13.7188 19.8018C13.5807 20.1355 13.3785 20.4389 13.1231 20.6943C12.8677 20.9498 12.5643 21.1528 12.2306 21.291C11.9403 21.4112 11.6403 21.4579 11.3233 21.4795C11.0131 21.5006 10.6334 21.5 10.1778 21.5C9.72247 21.5 9.34341 21.5006 9.0333 21.4795C8.71636 21.4579 8.41629 21.4112 8.12607 21.291C7.79231 21.1528 7.48893 20.9498 7.23349 20.6943C6.97832 20.4391 6.77595 20.1362 6.63779 19.8027C6.49152 19.4515 6.45238 19.0809 6.4376 18.6797V18.6787C6.42607 18.3586 6.26457 18.0891 6.02256 17.9482C5.89647 17.8796 5.75507 17.8436 5.61142 17.8428C5.46425 17.842 5.31873 17.8787 5.18955 17.9492L5.18174 17.9541C4.82446 18.1434 4.48562 18.2928 4.11045 18.3428H4.10947C3.75135 18.39 3.38712 18.3659 3.03818 18.2725C2.68934 18.179 2.36182 18.0177 2.07529 17.7979L2.07431 17.7969C1.82624 17.6055 1.63625 17.3699 1.45908 17.1065C1.28575 16.8487 1.09649 16.5204 0.86826 16.126L0.867283 16.124C0.640021 15.7296 0.45018 15.4013 0.313572 15.1221C0.174055 14.8369 0.0646053 14.5544 0.0235332 14.2432C-0.0237185 13.885 0.000418858 13.5208 0.0938457 13.1719C0.187263 12.8231 0.348714 12.4964 0.568455 12.21C0.799723 11.9081 1.10206 11.6894 1.43857 11.4766L1.4415 11.4746C1.71441 11.3038 1.86631 11.0279 1.86631 10.75C1.86631 10.4723 1.71438 10.1964 1.44053 10.0244L1.43955 10.0234C1.10029 9.80993 0.800746 9.59203 0.569432 9.292L0.568455 9.29005C0.348713 9.00357 0.187263 8.67688 0.0938457 8.32813C0.000418858 7.9792 -0.0237185 7.61496 0.0235332 7.25684C0.0641798 6.94456 0.173943 6.66165 0.313572 6.37696C0.450543 6.09773 0.641643 5.76914 0.869236 5.37501C1.09736 4.97995 1.28653 4.65163 1.46006 4.39356C1.63722 4.13009 1.82646 3.89518 2.07334 3.70411L2.07627 3.70215C2.6547 3.25854 3.38575 3.06219 4.10849 3.15723H4.10947C4.39165 3.19476 4.65246 3.28883 4.91611 3.41309L5.18174 3.5459L5.18955 3.55079C5.31873 3.62131 5.46425 3.65798 5.61142 3.65723C5.75348 3.65644 5.89265 3.61988 6.01767 3.55274C6.14182 3.47759 6.24623 3.37343 6.31943 3.24805C6.39353 3.12104 6.4341 2.97709 6.4376 2.83008V2.82032L6.45517 2.52442C6.47952 2.23419 6.52888 1.96096 6.63681 1.69922L6.63779 1.69825C6.77595 1.36451 6.97811 1.06111 7.23349 0.80567C7.48893 0.550232 7.79231 0.347193 8.12607 0.208991C8.41629 0.0887928 8.71636 0.0421074 9.0333 0.020514C9.34341 -0.00059201 9.72247 5.96827e-06 10.1778 6.23299e-06ZM3.36631 10.75C3.36631 11.5869 2.91093 12.3217 2.23935 12.7432C1.93423 12.9361 1.82154 13.0402 1.75888 13.1221H1.75791C1.65796 13.2523 1.58553 13.4019 1.54306 13.5606C1.50067 13.7191 1.48938 13.8842 1.51084 14.0469L1.52353 14.1162C1.54243 14.194 1.58155 14.3 1.66123 14.4629C1.77019 14.6856 1.92898 14.9625 2.16611 15.374C2.40475 15.7864 2.56561 16.0634 2.7042 16.2695C2.83901 16.47 2.92341 16.5578 2.99033 16.6094H2.98935C3.11923 16.7088 3.2679 16.7809 3.42588 16.8232C3.58417 16.8656 3.74973 16.8768 3.91221 16.8555L4.00107 16.8379C4.06798 16.82 4.15332 16.7884 4.27256 16.7324L4.47959 16.6279C4.82919 16.439 5.22076 16.3408 5.61826 16.3428C5.969 16.3446 6.31474 16.4243 6.62998 16.5752L6.76377 16.6445L6.77353 16.6504C7.49635 17.0695 7.90777 17.8292 7.93662 18.624C7.94652 18.8926 7.96771 19.044 7.99424 19.1426L8.02256 19.2266L8.02353 19.2285C8.08631 19.38 8.17811 19.5178 8.29404 19.6338C8.41018 19.7499 8.54853 19.8425 8.70029 19.9053C8.77707 19.9371 8.89417 19.966 9.13486 19.9824C9.38225 19.9993 9.70183 20 10.1778 20C10.6541 20 10.9743 19.9993 11.2218 19.9824C11.4625 19.966 11.5796 19.9371 11.6563 19.9053L11.7677 19.8525C11.8759 19.7947 11.9755 19.7209 12.0626 19.6338C12.1785 19.5178 12.2703 19.38 12.3331 19.2285L12.3614 19.1436C12.3884 19.0432 12.4102 18.8909 12.42 18.624C12.4488 17.8299 12.8596 17.0679 13.5841 16.6494L13.5929 16.6445C13.9428 16.4488 14.3374 16.3448 14.7384 16.3428C15.1356 16.3408 15.5267 16.4392 15.8761 16.6279H15.877C16.1918 16.7947 16.3396 16.8415 16.4444 16.8555H16.4435C16.6061 16.8769 16.7713 16.8656 16.9298 16.8232C17.0882 16.7808 17.2371 16.7081 17.3673 16.6084C17.4332 16.5578 17.5177 16.4711 17.6524 16.2705C17.7908 16.0644 17.9505 15.7874 18.1886 15.375C18.427 14.9622 18.5871 14.6857 18.6964 14.4629C18.8026 14.2463 18.8352 14.1306 18.8458 14.0488V14.0469C18.8673 13.8842 18.856 13.719 18.8136 13.5606C18.7711 13.4019 18.6977 13.2524 18.5978 13.1221V13.1211C18.5335 13.0386 18.4196 12.9367 18.127 12.752L18.0011 12.669C17.7148 12.4686 17.4757 12.2069 17.3019 11.9024C17.1032 11.5543 16.9959 11.1615 16.9903 10.7607V10.75C16.9903 9.91194 17.4461 9.17513 18.1192 8.75391C18.4223 8.56207 18.5353 8.45953 18.5978 8.37794L18.6681 8.27637C18.7328 8.17217 18.7817 8.0584 18.8136 7.93946C18.8454 7.8205 18.8596 7.69784 18.8556 7.5752L18.8458 7.45313C18.8349 7.37041 18.8016 7.25409 18.6954 7.03712C18.5865 6.81444 18.4276 6.53751 18.1905 6.12598L17.8839 5.60059C17.7966 5.45413 17.7217 5.33352 17.6524 5.23048C17.5183 5.03102 17.434 4.94334 17.3673 4.89161C17.2371 4.79187 17.0882 4.71917 16.9298 4.67676C16.7713 4.63438 16.6061 4.62213 16.4435 4.64356C16.3395 4.65756 16.1933 4.7034 15.8839 4.86622L15.8849 4.86719C15.5331 5.05905 15.138 5.15928 14.7374 5.15723C14.3368 5.15518 13.9435 5.05084 13.5938 4.85548L13.5841 4.85059L13.5753 4.84473C13.2312 4.63954 12.9444 4.35086 12.7423 4.00489C12.5402 3.65883 12.4286 3.26683 12.419 2.86622V2.86524C12.4056 2.51432 12.3731 2.36703 12.3341 2.27344L12.3331 2.27149C12.2703 2.11999 12.1785 1.98221 12.0626 1.86622C11.9755 1.77914 11.8759 1.70531 11.7677 1.64747L11.6563 1.59473C11.5796 1.56294 11.4625 1.53399 11.2218 1.51758C10.9743 1.50072 10.6541 1.50001 10.1778 1.50001C9.70183 1.50001 9.38225 1.50073 9.13486 1.51758C8.89417 1.53399 8.77707 1.56295 8.70029 1.59473C8.54853 1.65755 8.41018 1.75007 8.29404 1.86622C8.20701 1.9533 8.13408 2.05294 8.07627 2.16114L8.02353 2.27149C7.98359 2.36851 7.94972 2.52145 7.93662 2.87598L7.93564 2.87501C7.92465 3.27254 7.81493 3.66137 7.61435 4.00489C7.41228 4.35086 7.12547 4.63953 6.78135 4.84473L6.77256 4.85059L6.76377 4.85548C6.41384 5.05118 6.01919 5.15519 5.61826 5.15723C5.22061 5.1592 4.82929 5.06021 4.47959 4.8711V4.87208C4.16505 4.70544 4.01693 4.65857 3.91123 4.64454V4.64356C3.58313 4.60078 3.25095 4.69118 2.98838 4.89258C2.92178 4.94479 2.83701 5.03296 2.7042 5.23048C2.5658 5.43633 2.40577 5.71335 2.16806 6.12501C1.92968 6.53783 1.76953 6.81435 1.66025 7.03712C1.55401 7.25369 1.5214 7.3694 1.51084 7.45118V7.45313C1.48938 7.6158 1.50067 7.78096 1.54306 7.93946C1.58535 8.09741 1.65762 8.2461 1.75693 8.37598C1.82149 8.45974 1.93613 8.56369 2.23838 8.75391L2.36142 8.83692C2.96523 9.26855 3.36631 9.9642 3.36631 10.75Z" fill="var(--fill-0, black)"/>
</g>
</svg>
