<svg viewBox="0 0 24 24" fill="none" xmlns="http://www.w3.org/2000/svg">
<g id="solar:alt-arrow-right-outline">
<path id="Vector" fill-rule="evenodd" clip-rule="evenodd" d="M8.51193 4.17984C8.66301 4.05063 8.8592 3.98669 9.0574 4.00207C9.2556 4.01744 9.43958 4.11088 9.56893 4.26184L15.5689 11.2618C15.6854 11.3978 15.7494 11.5708 15.7494 11.7498C15.7494 11.9288 15.6854 12.1019 15.5689 12.2378L9.56893 19.2378C9.43744 19.3814 9.25528 19.4682 9.06094 19.48C8.86661 19.4917 8.67533 19.4274 8.52755 19.3006C8.37977 19.1739 8.28706 18.9946 8.26903 18.8008C8.251 18.6069 8.30906 18.4137 8.43093 18.2618L14.0119 11.7498L8.43093 5.23784C8.30148 5.08701 8.2372 4.89097 8.2522 4.69278C8.2672 4.49459 8.36026 4.31046 8.51093 4.18084" fill="var(--fill-0, #9F9F9F)"/>
</g>
</svg>
