<svg viewBox="0 0 24 24" fill="none" xmlns="http://www.w3.org/2000/svg">
<g id="solar:box-bold-duotone">
<path id="Vector" d="M8.42308 20.6183C10.1791 21.5403 11.0571 22.0003 12.0011 22.0003V12.0003L2.63908 7.07328L2.59908 7.14028C2.00108 8.15428 2.00108 9.41728 2.00108 11.9423V12.0593C2.00108 14.5833 2.00108 15.8463 2.59808 16.8603C3.19608 17.8753 4.27208 18.4403 6.42308 19.5693L8.42308 20.6183Z" fill="var(--fill-0, #1B8918)"/>
<path id="Vector_2" opacity="0.7" d="M17.5762 4.43215L15.5762 3.38215C13.8212 2.46115 12.9432 2.00015 11.9992 2.00015C11.0542 2.00015 10.1772 2.46015 8.42117 3.38215L6.42117 4.43215C4.31717 5.53615 3.24117 6.10015 2.63717 7.07215L11.9992 12.0002L21.3612 7.07315C20.7552 6.10015 19.6812 5.53615 17.5762 4.43215Z" fill="var(--fill-0, #1B8918)"/>
<path id="Vector_3" opacity="0.5" d="M21.4044 7.14028L21.3634 7.07328L12.0014 12.0003V22.0003C12.9454 22.0003 13.8234 21.5403 15.5794 20.6183L17.5794 19.5683C19.7304 18.4393 20.8064 17.8753 21.4044 16.8603C22.0014 15.8463 22.0014 14.5833 22.0014 12.0603V11.9433C22.0014 9.41828 22.0014 8.15428 21.4044 7.14028Z" fill="var(--fill-0, #1B8918)"/>
<path id="Vector_4" d="M6.32558 4.48413L6.42557 4.43213L7.91857 3.64813L17.0186 8.65313L21.0436 6.64213C21.1802 6.79679 21.3009 6.96279 21.4056 7.14013C21.5556 7.39413 21.6676 7.66413 21.7516 7.96513L17.7526 9.96413V13.0001C17.7526 13.199 17.6736 13.3898 17.5329 13.5305C17.3923 13.6711 17.2015 13.7501 17.0026 13.7501C16.8037 13.7501 16.6129 13.6711 16.4722 13.5305C16.3316 13.3898 16.2526 13.199 16.2526 13.0001V10.7141L12.7526 12.4641V21.9041C12.5076 21.9676 12.2556 21.9999 12.0026 22.0001C11.7546 22.0001 11.5096 21.9681 11.2526 21.9041V12.4641L2.25458 7.96413C2.33858 7.66413 2.45058 7.39413 2.60058 7.14013C2.70458 6.96279 2.82524 6.79679 2.96258 6.64213L12.0026 11.1621L15.3896 9.46913L6.32558 4.48413Z" fill="var(--fill-0, #1B8918)"/>
</g>
</svg>
