<svg viewBox="0 0 24 24" fill="none" xmlns="http://www.w3.org/2000/svg">
<g id="solar:box-outline">
<path id="Vector" fill-rule="evenodd" clip-rule="evenodd" d="M11.9996 1.2499C11.3946 1.2499 10.8376 1.3999 10.2286 1.6519C9.63962 1.8959 8.95562 2.2549 8.10462 2.7019L6.03662 3.7869C4.99162 4.3349 4.15662 4.7739 3.50962 5.2049C2.84162 5.6519 2.32562 6.1219 1.95062 6.7589C1.57662 7.3939 1.40862 8.0819 1.32762 8.9009C1.24962 9.6959 1.24962 10.6729 1.24962 11.9029V12.0969C1.24962 13.3269 1.24962 14.3039 1.32762 15.0989C1.40862 15.9189 1.57762 16.6059 1.95062 17.2409C2.32562 17.8779 2.84062 18.3479 3.51062 18.7949C4.15562 19.2259 4.99162 19.6649 6.03662 20.2129L8.10462 21.2979C8.95562 21.7449 9.63962 22.1039 10.2286 22.3479C10.8386 22.5999 11.3946 22.7499 11.9996 22.7499C12.6046 22.7499 13.1616 22.5999 13.7706 22.3479C14.3596 22.1039 15.0436 21.7449 15.8946 21.2979L17.9626 20.2139C19.0076 19.6649 19.8426 19.2259 20.4886 18.7949C21.1586 18.3479 21.6736 17.8779 22.0486 17.2409C22.4226 16.6059 22.5906 15.9179 22.6716 15.0989C22.7496 14.3039 22.7496 13.3269 22.7496 12.0979V11.9019C22.7496 10.6729 22.7496 9.6959 22.6716 8.9009C22.5906 8.0809 22.4216 7.3939 22.0486 6.7589C21.6736 6.1219 21.1586 5.6519 20.4886 5.2049C19.8436 4.7739 19.0076 4.3349 17.9626 3.7869L15.8946 2.7019C15.0436 2.2549 14.3596 1.8959 13.7706 1.6519C13.1606 1.3999 12.6046 1.2499 11.9996 1.2499ZM8.76962 4.0459C9.65962 3.5789 10.2836 3.2529 10.8016 3.0389C11.3056 2.8299 11.6606 2.7499 11.9996 2.7499C12.3396 2.7499 12.6936 2.8299 13.1976 3.0389C13.7156 3.2529 14.3386 3.5789 15.2286 4.0459L17.2286 5.0959C18.3186 5.6669 19.0836 6.0699 19.6566 6.4519C19.9386 6.6409 20.1596 6.8159 20.3396 6.9919L17.0086 8.6569L8.50862 4.1829L8.76962 4.0459ZM6.94462 5.0039L6.77062 5.0959C5.68062 5.6669 4.91562 6.0699 4.34362 6.4519C4.09973 6.61038 3.87109 6.79116 3.66062 6.9919L11.9996 11.1619L15.3566 9.4819L7.15062 5.1639C7.07366 5.1222 7.00407 5.06815 6.94462 5.0039ZM2.93762 8.3069C2.88762 8.5209 2.84862 8.7639 2.82062 9.0469C2.75062 9.7609 2.74962 10.6639 2.74962 11.9409V12.0579C2.74962 13.3359 2.74962 14.2389 2.82062 14.9519C2.88962 15.6489 3.02062 16.0999 3.24362 16.4799C3.46562 16.8569 3.78662 17.1759 4.34362 17.5479C4.91562 17.9299 5.68062 18.3329 6.77062 18.9039L8.77062 19.9539C9.66062 20.4209 10.2836 20.7469 10.8016 20.9609C10.9643 21.0282 11.1136 21.0832 11.2496 21.1259V12.4629L2.93762 8.3069ZM12.7496 21.1249C12.8856 21.0829 13.035 21.0282 13.1976 20.9609C13.7156 20.7469 14.3386 20.4209 15.2286 19.9539L17.2286 18.9039C18.3186 18.3319 19.0836 17.9299 19.6566 17.5479C20.2126 17.1759 20.5336 16.8569 20.7566 16.4799C20.9796 16.0999 21.1096 15.6499 21.1786 14.9519C21.2486 14.2389 21.2496 13.3359 21.2496 12.0589V11.9419C21.2496 10.6639 21.2496 9.7609 21.1786 9.0479C21.1551 8.79904 21.116 8.55189 21.0616 8.3079L17.7496 9.9629V12.9999C17.7496 13.1988 17.6706 13.3896 17.5299 13.5302C17.3893 13.6709 17.1985 13.7499 16.9996 13.7499C16.8007 13.7499 16.6099 13.6709 16.4693 13.5302C16.3286 13.3896 16.2496 13.1988 16.2496 12.9999V10.7139L12.7496 12.4639V21.1249Z" fill="var(--fill-0, #1B8918)"/>
</g>
</svg>
