<svg viewBox="0 0 24 24" fill="none" xmlns="http://www.w3.org/2000/svg">
<g id="solar:garage-outline">
<path id="Vector" fill-rule="evenodd" clip-rule="evenodd" d="M13.4946 4.33186C13.0827 3.96566 12.5508 3.76337 11.9996 3.76337C11.4485 3.76337 10.9165 3.96566 10.5046 4.33186L4.50462 9.66586C4.26726 9.8769 4.07726 10.1358 3.94713 10.4255C3.817 10.7153 3.74969 11.0293 3.74962 11.3469V21.2499H5.24962V15.9479C5.24962 15.0499 5.24962 14.2999 5.32962 13.7059C5.41362 13.0779 5.59962 12.5109 6.05462 12.0559C6.51062 11.5999 7.07762 11.4139 7.70462 11.3299C8.29962 11.2499 9.04962 11.2499 9.94762 11.2499H14.0516C14.9506 11.2499 15.6996 11.2499 16.2936 11.3299C16.9216 11.4139 17.4886 11.5999 17.9436 12.0559C18.3996 12.5109 18.5856 13.0779 18.6696 13.7059C18.7496 14.2999 18.7496 15.0499 18.7496 15.9479V21.2499H20.2496V11.3469C20.2495 11.0293 20.1822 10.7153 20.0521 10.4255C19.922 10.1358 19.732 9.8769 19.4946 9.66586L13.4946 4.33186ZM21.7496 21.2499V11.3469C21.7496 10.8172 21.6374 10.2936 21.4204 9.81049C21.2034 9.32736 20.8865 8.89567 20.4906 8.54386L14.4906 3.21086C13.8042 2.60089 12.9179 2.26397 11.9996 2.26397C11.0814 2.26397 10.195 2.60089 9.50862 3.21086L3.50862 8.54386C3.11272 8.89567 2.79584 9.32736 2.57884 9.81049C2.36184 10.2936 2.24963 10.8172 2.24962 11.3469V21.2499H1.99962C1.80071 21.2499 1.60994 21.3289 1.46929 21.4695C1.32864 21.6102 1.24962 21.8009 1.24962 21.9999C1.24962 22.1988 1.32864 22.3895 1.46929 22.5302C1.60994 22.6708 1.80071 22.7499 1.99962 22.7499H21.9996C22.1985 22.7499 22.3893 22.6708 22.5299 22.5302C22.6706 22.3895 22.7496 22.1988 22.7496 21.9999C22.7496 21.8009 22.6706 21.6102 22.5299 21.4695C22.3893 21.3289 22.1985 21.2499 21.9996 21.2499H21.7496ZM17.2496 21.2499V15.9999C17.2496 15.0359 17.2476 14.3889 17.1826 13.9049C17.1206 13.4439 17.0136 13.2459 16.8826 13.1159C16.7516 12.9859 16.5556 12.8789 16.0946 12.8159C15.6116 12.7519 14.9636 12.7499 13.9996 12.7499H9.99962C9.03562 12.7499 8.38762 12.7519 7.90462 12.8169C7.44362 12.8789 7.24562 12.9859 7.11562 13.1169C6.98562 13.2479 6.87862 13.4439 6.81562 13.9049C6.75162 14.3889 6.74962 15.0359 6.74962 15.9999V21.2499H17.2496ZM9.24962 8.99986C9.24962 8.80095 9.32864 8.61018 9.46929 8.46953C9.60994 8.32888 9.80071 8.24986 9.99962 8.24986H13.9996C14.1985 8.24986 14.3893 8.32888 14.5299 8.46953C14.6706 8.61018 14.7496 8.80095 14.7496 8.99986C14.7496 9.19877 14.6706 9.38954 14.5299 9.53019C14.3893 9.67084 14.1985 9.74986 13.9996 9.74986H9.99962C9.80071 9.74986 9.60994 9.67084 9.46929 9.53019C9.32864 9.38954 9.24962 9.19877 9.24962 8.99986ZM8.24962 15.4999C8.24962 15.3009 8.32864 15.1102 8.46929 14.9695C8.60994 14.8289 8.80071 14.7499 8.99962 14.7499H14.9996C15.1985 14.7499 15.3893 14.8289 15.5299 14.9695C15.6706 15.1102 15.7496 15.3009 15.7496 15.4999C15.7496 15.6988 15.6706 15.8895 15.5299 16.0302C15.3893 16.1708 15.1985 16.2499 14.9996 16.2499H8.99962C8.80071 16.2499 8.60994 16.1708 8.46929 16.0302C8.32864 15.8895 8.24962 15.6988 8.24962 15.4999ZM8.24962 18.4999C8.24962 18.3009 8.32864 18.1102 8.46929 17.9695C8.60994 17.8289 8.80071 17.7499 8.99962 17.7499H14.9996C15.1985 17.7499 15.3893 17.8289 15.5299 17.9695C15.6706 18.1102 15.7496 18.3009 15.7496 18.4999C15.7496 18.6988 15.6706 18.8895 15.5299 19.0302C15.3893 19.1708 15.1985 19.2499 14.9996 19.2499H8.99962C8.80071 19.2499 8.60994 19.1708 8.46929 19.0302C8.32864 18.8895 8.24962 18.6988 8.24962 18.4999Z" fill="var(--fill-0, #1B8918)"/>
</g>
</svg>
