<svg viewBox="0 0 21.5 21.5" fill="none" xmlns="http://www.w3.org/2000/svg">
<g id="Group">
<path id="Vector (Stroke)" d="M20 10.75C20 5.64137 15.8587 1.5 10.75 1.5C5.64139 1.5 1.50003 5.64137 1.50003 10.75C1.50003 15.8586 5.64139 20 10.75 20C15.8587 20 20 15.8586 20 10.75ZM21.5 10.75C21.5 16.6871 16.6871 21.5 10.75 21.5C4.81297 21.5 2.8193e-05 16.6871 2.8193e-05 10.75C2.8193e-05 4.81294 4.81297 0 10.75 0C16.6871 0 21.5 4.81294 21.5 10.75Z" fill="var(--fill-0, #1B8918)"/>
<path id="Vector (Stroke)_2" d="M12.9991 13.2499C12.9991 12.5719 12.435 11.8536 11.4991 11.5976V14.9013C12.4348 14.6452 12.9991 13.9279 12.9991 13.2499ZM12.9991 8.24993C12.9991 7.57194 12.435 6.85364 11.4991 6.59759V10.0683C13.1296 10.3604 14.4991 11.5843 14.4991 13.2499C14.4991 14.9155 13.1295 16.1384 11.4991 16.4306V16.7499C11.4991 17.1641 11.1633 17.4999 10.7491 17.4999C10.3349 17.4999 9.99912 17.1641 9.99912 16.7499V16.4306C8.3687 16.1384 6.99912 14.9155 6.99912 13.2499C6.99912 12.8357 7.3349 12.4999 7.74912 12.4999C8.16333 12.4999 8.49912 12.8357 8.49912 13.2499C8.49912 13.9279 9.0634 14.6452 9.99912 14.9013V11.4306C8.3687 11.1384 6.99912 9.91546 6.99912 8.24993C6.99912 6.58435 8.36862 5.36044 9.99912 5.06829V4.74993C9.99912 4.33572 10.3349 3.99993 10.7491 3.99993C11.1633 3.99993 11.4991 4.33572 11.4991 4.74993V5.06829C13.1296 5.36044 14.4991 6.58435 14.4991 8.24993C14.4991 8.66414 14.1633 8.99993 13.7491 8.99993C13.3349 8.99993 12.9991 8.66414 12.9991 8.24993ZM8.49912 8.24993C8.49912 8.92786 9.0634 9.64519 9.99912 9.9013V6.59759C9.06325 6.85364 8.49912 7.57194 8.49912 8.24993Z" fill="var(--fill-0, #1B8918)"/>
</g>
</svg>
