<svg viewBox="0 0 12.0002 13.2501" fill="none" xmlns="http://www.w3.org/2000/svg">
<g id="Group">
<path id="Vector (Stroke)" d="M8.75049 7.62508H4.50049V10.3751C4.50049 10.9748 4.50089 11.3869 4.54248 11.6964C4.58266 11.995 4.65543 12.1413 4.75732 12.2432C4.85922 12.3451 5.00556 12.4179 5.3042 12.4581C5.61366 12.4997 6.02571 12.5001 6.62549 12.5001C7.22526 12.5001 7.63732 12.4997 7.94678 12.4581C8.24542 12.4179 8.39176 12.3451 8.49365 12.2432C8.59554 12.1413 8.66832 11.995 8.7085 11.6964C8.75009 11.3869 8.75049 10.9748 8.75049 10.3751V7.62508ZM9.50049 10.3751C9.50049 10.9538 9.50159 11.4258 9.45166 11.797C9.40026 12.1788 9.28822 12.5092 9.02393 12.7735C8.75963 13.0378 8.42923 13.1498 8.04736 13.2012C7.67624 13.2512 7.20425 13.2501 6.62549 13.2501C6.04672 13.2501 5.57474 13.2512 5.20361 13.2012C4.82174 13.1498 4.49135 13.0378 4.22705 12.7735C3.96275 12.5092 3.85072 12.1788 3.79932 11.797C3.74939 11.4258 3.75049 10.9538 3.75049 10.3751V7.53914C2.95193 7.31034 2.2199 6.88946 1.62256 6.30769C0.952529 5.65508 0.47745 4.82835 0.250488 3.92097L0.0112305 2.9659C-0.0388499 2.76505 0.0838214 2.56103 0.284668 2.51082C0.485517 2.46074 0.689534 2.58341 0.739746 2.78426L0.978027 3.73933C1.1712 4.51146 1.57586 5.21423 2.146 5.76961C2.70776 6.31677 3.40874 6.69863 4.17236 6.87508H9.12549C10.3843 6.87508 11.4439 7.8173 11.5913 9.06844L11.9976 12.5186C12.0218 12.7243 11.8751 12.9104 11.6694 12.9346C11.4638 12.9589 11.2777 12.8121 11.2534 12.6065L10.8472 9.15633C10.7594 8.41051 10.2067 7.82331 9.50049 7.66707V10.3751Z" fill="var(--fill-0, white)"/>
<path id="Vector (Stroke)_2" d="M8.75049 2.875C8.75049 1.70139 7.79909 0.75 6.62549 0.75C5.45188 0.75 4.50049 1.70139 4.50049 2.875C4.50049 4.04861 5.45188 5 6.62549 5C7.79909 5 8.75049 4.04861 8.75049 2.875ZM9.50049 2.875C9.50049 4.46282 8.21331 5.75 6.62549 5.75C5.03767 5.75 3.75049 4.46282 3.75049 2.875C3.75049 1.28718 5.03767 0 6.62549 0C8.21331 0 9.50049 1.28718 9.50049 2.875Z" fill="var(--fill-0, white)"/>
</g>
</svg>
