<svg viewBox="0 0 24 24" fill="none" xmlns="http://www.w3.org/2000/svg">
<g id="solar:box-outline" clip-path="url(#clip0_44_9419)">
<path id="Vector" fill-rule="evenodd" clip-rule="evenodd" d="M11.9996 1.25002C11.3946 1.25002 10.8376 1.40002 10.2286 1.65202C9.63962 1.89602 8.95562 2.25502 8.10462 2.70202L6.03662 3.78702C4.99162 4.33502 4.15662 4.77402 3.50962 5.20502C2.84162 5.65202 2.32562 6.12202 1.95062 6.75902C1.57662 7.39402 1.40862 8.08202 1.32762 8.90102C1.24962 9.69602 1.24962 10.673 1.24962 11.903V12.097C1.24962 13.327 1.24962 14.304 1.32762 15.099C1.40862 15.919 1.57762 16.606 1.95062 17.241C2.32562 17.878 2.84062 18.348 3.51062 18.795C4.15562 19.226 4.99162 19.665 6.03662 20.213L8.10462 21.298C8.95562 21.745 9.63962 22.104 10.2286 22.348C10.8386 22.6 11.3946 22.75 11.9996 22.75C12.6046 22.75 13.1616 22.6 13.7706 22.348L14.4996 22L14.1774 20.5C13.8008 20.691 13.4832 20.843 13.1976 20.961C13.035 21.0283 12.8856 21.083 12.7496 21.125V12.464L16.2496 10.714V13C16.2496 13.1989 16.3286 13.3897 16.4693 13.5303C16.6099 13.671 16.8007 13.75 16.9996 13.75C17.1985 13.75 17.3893 13.671 17.5299 13.5303C17.6706 13.3897 17.7496 13.1989 17.7496 13V9.96302L21.0616 8.30802C21.116 8.552 21.1551 8.79915 21.1786 9.04802C21.2496 9.76102 21.2496 10.664 21.2496 11.942V12.059C21.2496 13.336 21.2486 14.239 21.1786 14.952L22.5838 15.7398C22.6211 15.5348 22.6496 15.3218 22.6716 15.099C22.7496 14.304 22.7496 13.327 22.7496 12.098V11.902C22.7496 10.673 22.7496 9.69602 22.6716 8.90102C22.5906 8.08102 22.4216 7.39402 22.0486 6.75902C21.6736 6.12202 21.1586 5.65202 20.4886 5.20502C19.8436 4.77402 19.0076 4.33502 17.9626 3.78702L15.8946 2.70202C15.0436 2.25502 14.3596 1.89602 13.7706 1.65202C13.1606 1.40002 12.6046 1.25002 11.9996 1.25002ZM10.8016 3.03902C10.2836 3.25302 9.65962 3.57902 8.76962 4.04602L8.50862 4.18302L17.0086 8.65702L20.3396 6.99202C20.1596 6.81602 19.9386 6.64102 19.6566 6.45202C19.0836 6.07002 18.3186 5.66702 17.2286 5.09602L15.2286 4.04602C14.3386 3.57902 13.7156 3.25302 13.1976 3.03902C12.6936 2.83002 12.3396 2.75002 11.9996 2.75002C11.6606 2.75002 11.3056 2.83002 10.8016 3.03902ZM6.77062 5.09602L6.94462 5.00402C7.00407 5.06826 7.07366 5.12231 7.15062 5.16402L15.3566 9.48202L11.9996 11.162L3.66062 6.99202C3.87109 6.79127 4.09973 6.61049 4.34362 6.45202C4.91562 6.07002 5.68062 5.66702 6.77062 5.09602ZM2.82062 9.04702C2.84862 8.76402 2.88762 8.52102 2.93762 8.30702L11.2496 12.463V21.126C11.1136 21.0833 10.9643 21.0283 10.8016 20.961C10.2836 20.747 9.66062 20.421 8.77062 19.954L6.77062 18.904C5.68062 18.333 4.91562 17.93 4.34362 17.548C3.78662 17.176 3.46562 16.857 3.24362 16.48C3.02062 16.1 2.88962 15.649 2.82062 14.952C2.74962 14.239 2.74962 13.336 2.74962 12.058V11.941C2.74962 10.664 2.75062 9.76102 2.82062 9.04702Z" fill="var(--fill-0, #1B8918)"/>
<g id="solar:verified-check-bold-duotone" clip-path="url(#clip1_44_9419)">
<path id="Vector_2" d="M17.996 15.3334C17.9302 15.3924 17.8614 15.4479 17.7898 15.4996C17.6656 15.583 17.526 15.6405 17.3793 15.6696C17.3156 15.6821 17.2489 15.6875 17.116 15.698C16.7823 15.7246 16.6152 15.738 16.476 15.7871C16.3168 15.8432 16.1723 15.9343 16.0529 16.0536C15.9336 16.173 15.8425 16.3175 15.7864 16.4767C15.7373 16.6159 15.7239 16.783 15.6973 17.1167C15.6925 17.2049 15.683 17.2928 15.6689 17.38C15.6398 17.5267 15.5823 17.6663 15.4989 17.7905C15.4627 17.8446 15.4193 17.8955 15.3327 17.9967C15.1156 18.2517 15.0068 18.3792 14.9431 18.5125C14.796 18.8209 14.796 19.1792 14.9431 19.4875C15.0068 19.6209 15.1156 19.7484 15.3327 20.0034C15.4193 20.1046 15.4627 20.1555 15.4989 20.2096C15.5823 20.3338 15.6398 20.4734 15.6689 20.62C15.6814 20.6838 15.6868 20.7505 15.6973 20.8834C15.7239 21.2171 15.7373 21.3842 15.7864 21.5234C15.8425 21.6825 15.9336 21.8271 16.0529 21.9465C16.1723 22.0658 16.3168 22.1569 16.476 22.213C16.6152 22.2621 16.7823 22.2755 17.116 22.3021C17.2489 22.3125 17.3156 22.318 17.3793 22.3305C17.526 22.3596 17.6656 22.4175 17.7898 22.5005C17.8439 22.5367 17.8948 22.58 17.996 22.6667C18.251 22.8838 18.3785 22.9925 18.5118 23.0563C18.8202 23.2034 19.1785 23.2034 19.4868 23.0563C19.6202 22.9925 19.7477 22.8838 20.0027 22.6667C20.1039 22.58 20.1548 22.5367 20.2089 22.5005C20.3331 22.4171 20.4727 22.3596 20.6193 22.3305C20.6831 22.318 20.7498 22.3125 20.8827 22.3021C21.2164 22.2755 21.3835 22.2621 21.5227 22.213C21.6818 22.1569 21.8264 22.0658 21.9457 21.9465C22.0651 21.8271 22.1562 21.6825 22.2123 21.5234C22.2614 21.3842 22.2748 21.2171 22.3014 20.8834C22.3118 20.7505 22.3173 20.6838 22.3298 20.62C22.3589 20.4734 22.4168 20.3338 22.4998 20.2096C22.536 20.1555 22.5793 20.1046 22.666 20.0034C22.8831 19.7484 22.9918 19.6209 23.0556 19.4875C23.2027 19.1792 23.2027 18.8209 23.0556 18.5125C22.9918 18.3792 22.8831 18.2517 22.666 17.9967C22.607 17.9309 22.5515 17.8621 22.4998 17.7905C22.4164 17.6663 22.3586 17.5268 22.3298 17.38C22.3157 17.2928 22.3062 17.2049 22.3014 17.1167C22.2748 16.783 22.2614 16.6159 22.2123 16.4767C22.1562 16.3175 22.0651 16.173 21.9457 16.0536C21.8264 15.9343 21.6818 15.8432 21.5227 15.7871C21.3835 15.738 21.2164 15.7246 20.8827 15.698C20.7945 15.6932 20.7066 15.6837 20.6193 15.6696C20.4726 15.6408 20.3331 15.583 20.2089 15.4996C20.1373 15.4479 20.0684 15.3924 20.0027 15.3334C19.7477 15.1163 19.6202 15.0075 19.4868 14.9438C19.3346 14.8709 19.1681 14.8331 18.9993 14.8331C18.8306 14.8331 18.664 14.8709 18.5118 14.9438C18.3785 15.0075 18.251 15.1163 17.996 15.3334Z" fill="var(--fill-0, #1B8918)"/>
<path id="Vector_3" d="M20.8224 18.1096C20.8842 18.0457 20.9184 17.96 20.9177 17.871C20.9169 17.7821 20.8812 17.697 20.8184 17.6341C20.7555 17.5712 20.6704 17.5356 20.5814 17.5348C20.4925 17.534 20.4068 17.5682 20.3429 17.63L18.322 19.6509L17.6574 18.9863C17.5935 18.9245 17.5078 18.8903 17.4188 18.8911C17.3299 18.8918 17.2448 18.9275 17.1819 18.9904C17.119 19.0533 17.0834 19.1384 17.0826 19.2273C17.0818 19.3162 17.116 19.4019 17.1779 19.4659L18.082 20.37C18.1456 20.4335 18.2318 20.4691 18.3216 20.4691C18.4114 20.4691 18.4976 20.4335 18.5612 20.37L20.8224 18.1096Z" fill="var(--fill-0, white)"/>
</g>
</g>
<defs>
<clipPath id="clip0_44_9419">
<rect width="24" height="24" fill="white"/>
</clipPath>
<clipPath id="clip1_44_9419">
<rect width="10" height="10" fill="white" transform="translate(13.9998 14)"/>
</clipPath>
</defs>
</svg>
