<svg viewBox="0 0 21.5 21.5" fill="none" xmlns="http://www.w3.org/2000/svg">
<g id="Group 2087326493">
<path id="Vector" d="M10.2504 9.14547C9.65899 9.14547 9.17899 9.6143 9.17899 10.192C9.17899 10.377 9.10374 10.5545 8.96978 10.6853C8.83583 10.8161 8.65415 10.8896 8.46471 10.8896C8.27526 10.8896 8.09358 10.8161 7.95963 10.6853C7.82567 10.5545 7.75042 10.377 7.75042 10.192C7.75039 9.76436 7.86533 9.34424 8.08373 8.97364C8.30214 8.60304 8.61635 8.29496 8.99494 8.08022C9.37353 7.86548 9.80321 7.75161 10.241 7.75C10.6788 7.74839 11.1094 7.8591 11.4896 8.07105C11.8698 8.283 12.1864 8.58876 12.4077 8.95774C12.6289 9.32672 12.7471 9.74599 12.7503 10.1736C12.7536 10.6012 12.6419 11.0221 12.4263 11.3943C12.2107 11.7664 11.8988 12.0768 11.5218 12.2943C11.3567 12.3853 11.2073 12.5011 11.079 12.6375C10.9818 12.7491 10.9647 12.8236 10.9647 12.8663V14.0291C10.9647 14.2141 10.8895 14.3916 10.7555 14.5224C10.6215 14.6533 10.4399 14.7268 10.2504 14.7268C10.061 14.7268 9.8793 14.6533 9.74534 14.5224C9.61139 14.3916 9.53613 14.2141 9.53613 14.0291V12.8663C9.53613 12.3957 9.74756 12.0143 9.99042 11.7343C10.2304 11.458 10.5295 11.2468 10.7952 11.0933C10.9984 10.9772 11.1567 10.7988 11.2456 10.5859C11.3345 10.373 11.349 10.1373 11.287 9.91552C11.225 9.69369 11.0898 9.49802 10.9024 9.35882C10.715 9.21961 10.4859 9.14462 10.2504 9.14547ZM10.2504 17.75C10.503 17.75 10.7452 17.652 10.9239 17.4775C11.1025 17.3031 11.2028 17.0665 11.2028 16.8198C11.2028 16.5731 11.1025 16.3365 10.9239 16.162C10.7452 15.9876 10.503 15.8895 10.2504 15.8895C9.99783 15.8895 9.75559 15.9876 9.57698 16.162C9.39838 16.3365 9.29804 16.5731 9.29804 16.8198C9.29804 17.0665 9.39838 17.3031 9.57698 17.4775C9.75559 17.652 9.99783 17.75 10.2504 17.75Z" fill="var(--fill-0, #212121)"/>
<path id="Box" d="M0.75 5.75V15.75C0.75 18.5114 2.98858 20.75 5.75 20.75H15.75C18.5114 20.75 20.75 18.5114 20.75 15.75V5.75M0.75 5.75L4.5 0.75M0.75 5.75H4.5M20.75 5.75L17 0.75M20.75 5.75H17M4.5 0.75H17M4.5 0.75V5.75M17 0.75V5.75M17 5.75H4.5" stroke="var(--stroke-0, #212121)" stroke-width="1.5"/>
</g>
</svg>
