<svg viewBox="0 0 16.8699 10.361" fill="none" xmlns="http://www.w3.org/2000/svg">
<g id="RU">
<path id="Vector" d="M15.6369 0H16.8699V6.74148C16.8699 7.4375 16.7058 8.05895 16.3777 8.60582C16.0529 9.14938 15.5939 9.5786 15.0006 9.89347C14.4073 10.205 13.7113 10.3608 12.9125 10.3608C12.1137 10.3608 11.4177 10.205 10.8244 9.89347C10.2312 9.5786 9.77046 9.14938 9.44234 8.60582C9.11753 8.05895 8.95512 7.4375 8.95512 6.74148V0H10.1881V6.64205C10.1881 7.1392 10.2975 7.58168 10.5162 7.96946C10.735 8.35393 11.0465 8.6572 11.4509 8.87926C11.8585 9.09801 12.3457 9.20739 12.9125 9.20739C13.4793 9.20739 13.9665 9.09801 14.3742 8.87926C14.7818 8.6572 15.0934 8.35393 15.3088 7.96946C15.5276 7.58168 15.6369 7.1392 15.6369 6.64205V0Z" fill="var(--fill-0, #212121)"/>
<path id="Vector_2" d="M4.48227e-05 10.1818V0H3.44039C4.23584 0 4.88878 0.13589 5.39919 0.40767C5.90961 0.676136 6.28745 1.04569 6.53272 1.51634C6.77798 1.98698 6.90061 2.52225 6.90061 3.12216C6.90061 3.72206 6.77798 4.25402 6.53272 4.71804C6.28745 5.18206 5.91127 5.54664 5.40416 5.81179C4.89706 6.07363 4.2491 6.20455 3.46027 6.20455H0.676181V5.09091H3.4205C3.96406 5.09091 4.40156 5.01136 4.733 4.85227C5.06775 4.69318 5.3097 4.4678 5.45885 4.17614C5.61131 3.88116 5.68754 3.52983 5.68754 3.12216C5.68754 2.71449 5.61131 2.35819 5.45885 2.05327C5.30639 1.74834 5.06278 1.51302 4.72803 1.3473C4.39327 1.17827 3.9508 1.09375 3.40061 1.09375H1.233V10.1818H4.48227e-05ZM4.79266 5.60795L7.29834 10.1818H5.86652L3.40061 5.60795H4.79266Z" fill="var(--fill-0, #212121)"/>
</g>
</svg>
