<svg preserveAspectRatio="none" width="100%" height="100%" overflow="visible" style="display: block;" viewBox="0 0 69 37.6365" fill="none" xmlns="http://www.w3.org/2000/svg">
<g id="Temu_Logo_0 1">
<rect id="Rectangle 996" y="0.000177562" width="69" height="37.6364" fill="var(--fill-0, white)"/>
<path id="Vector" d="M69 0.000177562V37.6365H0V0.000177562H69ZM36.4485 20.1855H35.5154C34.6852 20.1855 34.006 20.8579 34.0129 21.688V32.0135C34.0129 32.8437 34.6852 33.5229 35.5154 33.5229C36.3456 33.5229 37.0248 32.8505 37.0248 32.0135V25.2351L39.5633 28.8164C40.0915 29.5574 41.1893 29.5574 41.7244 28.8164L44.2629 25.2351V32.0135C44.2629 32.8437 44.9353 33.5229 45.7723 33.5229C46.6024 33.5229 47.2817 32.8505 47.2748 32.0135V21.688C47.2748 20.8579 46.6024 20.1787 45.7723 20.1855H44.8392C44.4825 20.1855 44.1394 20.357 43.9336 20.6521L40.6473 25.5918L37.3541 20.6521C37.1483 20.357 36.8121 20.1855 36.4485 20.1855ZM59.7889 20.1855C58.9587 20.1855 58.2795 20.8579 58.2795 21.688V27.9931C58.2795 29.9759 57.1612 30.9913 55.3225 30.9844C53.4838 30.9844 52.3655 29.9347 52.3724 27.9039V21.688C52.3724 20.8579 51.7 20.1787 50.863 20.1855C50.0328 20.1855 49.3536 20.8579 49.3605 21.688V27.9725C49.3605 31.6499 51.6108 33.5229 55.2882 33.5229C58.9656 33.5229 61.2983 31.6705 61.2914 27.8833V21.688C61.2914 20.8579 60.619 20.1787 59.7889 20.1855ZM17.466 20.1855H8.66362C7.83346 20.1855 7.15424 20.8579 7.15424 21.688C7.15424 22.5182 7.8266 23.1974 8.66362 23.1974H11.5589V31.9998C11.5589 32.83 12.2312 33.5092 13.0614 33.5092C13.8915 33.5092 14.5708 32.8368 14.5708 31.9998V23.1974H17.466C18.2962 23.1974 18.9754 22.5251 18.9754 21.688C18.9754 20.8579 18.303 20.1787 17.466 20.1855ZM30.4947 20.1855H22.3372C21.507 20.1855 20.8278 20.8579 20.8278 21.688V31.9998C20.8278 32.83 21.5002 33.5092 22.3372 33.5092H30.4947C31.3248 33.5092 32.004 32.8368 31.9972 31.9998C31.9972 31.1696 31.3248 30.4904 30.4947 30.4904H23.8397V28.3499H29.6302C30.4604 28.3499 31.1396 27.6775 31.1396 26.8474C31.1396 26.0172 30.4672 25.338 29.6302 25.338H23.8397V23.1974H30.4947C31.3248 23.1974 32.004 22.5251 31.9972 21.688C31.9972 20.8579 31.3248 20.1787 30.4947 20.1855ZM15.7783 4.44685L15.497 4.45371C14.3238 4.52918 13.5211 5.03688 13.0682 5.72296C12.54 4.93397 11.552 4.37825 10.0632 4.46058L10.0289 4.5086C9.85739 4.78304 9.21248 6.01112 10.2553 7.34897C10.468 7.57538 10.9894 8.21343 10.7767 9.02987L7.75113 13.9216C7.50414 14.3195 7.61392 14.8341 7.99126 15.1017C8.77339 15.6505 10.3445 16.4052 13.0682 16.4052C15.7851 16.4052 17.3562 15.6505 18.1384 15.1017L18.2413 15.0125C18.5363 14.7312 18.598 14.2784 18.3785 13.9216L15.3598 9.02987L15.3803 9.11906L15.346 8.98184C15.1814 8.24774 15.593 7.66457 15.8194 7.40386L15.8743 7.34897C16.924 6.01112 16.2722 4.7899 16.1007 4.5086L16.0733 4.46058L15.7783 4.44685ZM25.5755 6.73836C24.5395 4.68012 23.1948 4.33022 22.5224 4.86536C22.0079 5.27701 20.8209 6.90302 20.7386 7.01279C19.4282 8.87207 19.5037 9.32488 21.1846 10.3814C22.1314 10.9783 22.8929 10.2099 23.2222 9.98352C23.0644 10.9646 22.5842 12.5083 21.8638 13.5923C21.4727 13.2973 21.1846 13.0709 21.0062 12.9062C20.7798 12.7004 20.4367 12.7141 20.2172 12.9268C20.1143 13.0297 20.0594 13.1669 20.0663 13.3179C20.0731 13.4619 20.1349 13.5992 20.2378 13.6952C21.9873 15.2938 24.2856 16.1994 26.735 16.2063C29.1911 16.2063 31.5032 15.3006 33.2527 13.6952C33.4791 13.4894 33.486 13.1463 33.2802 12.9268C33.0606 12.7073 32.7176 12.7004 32.4912 12.9062C32.3539 13.0297 32.2167 13.1463 32.0726 13.263L31.3042 11.5478C31.1807 11.2528 31.0435 10.8823 30.8926 10.4363C30.9681 10.2511 31.1259 10.0727 31.3523 9.83944C31.5169 9.67478 31.6541 9.51012 31.7571 9.35232C32.2648 8.54961 31.9766 8.07622 31.8188 7.76062C31.4552 7.01965 30.8857 7.25978 30.4741 7.69888C29.9664 8.23402 29.4724 8.46728 28.6766 8.64566C28.0111 8.7966 27.4965 8.72113 27.0711 8.45356C26.4811 8.08994 25.5755 6.73836 25.5755 6.73836ZM44.6005 4.64582C42.405 6.7315 44.5113 11.2665 40.5183 13.1944C40.0792 13.4071 39.7156 12.7073 39.1255 12.7073C37.4584 12.721 34.275 14.1892 34.1515 14.9302C34.0486 15.5408 35.407 16.0279 39.4137 16.0347C42.899 16.0347 44.0242 10.7313 45.2454 10.7245C46.4666 10.7245 45.8972 15.5339 45.7668 16.0347H47.0429C46.9331 15.5339 46.8508 14.0245 46.8577 11.8908C46.8577 9.75711 47.2419 9.28372 47.5506 7.67143C47.8182 6.27183 45.7462 5.05747 44.6005 4.64582ZM57.1146 4.81734H53.5401C51.228 4.81734 49.307 6.60801 49.1492 8.91323L48.8885 12.6112C48.765 14.3676 50.1577 15.8564 51.9141 15.8632H58.7337C60.4969 15.8632 61.8828 14.3744 61.7662 12.6112L61.5055 8.91323C61.3408 6.60801 59.4266 4.81734 57.1146 4.81734ZM26.7487 13.3247C27.8258 13.3247 28.6491 13.853 28.951 14.8341C28.2169 15.0262 27.4828 15.1223 26.735 15.1154C25.6098 15.1154 25.2119 15.0125 24.4915 14.8204C24.7796 13.9559 25.7333 13.3247 26.7487 13.3247ZM53.7047 7.88411V7.98703C53.7047 8.87893 54.432 9.61304 55.3239 9.61304C56.2158 9.61304 56.9499 8.88579 56.9499 7.98703V7.88411C56.9499 7.48619 58.3907 7.48619 58.3907 7.88411V7.98703C58.3907 9.67478 57.0185 11.0469 55.3239 11.0469C53.6361 11.0469 52.264 9.67478 52.264 7.98703V7.88411C52.264 7.48619 53.6979 7.48619 53.7047 7.88411Z" fill="var(--fill-0, #FB7701)"/>
</g>
</svg>
