<svg preserveAspectRatio="none" width="100%" height="100%" overflow="visible" style="display: block;" viewBox="0 0 39 34" fill="none" xmlns="http://www.w3.org/2000/svg">
<path id="Vector" d="M12.0421 5.25581L12.7719 4.26744L12.6123 4.55814C12.5895 4.59302 12.6009 4.62791 12.6351 4.65116C12.6693 4.67442 12.7035 4.66279 12.7149 4.62791L13 4.10465L13.2965 4.63953C13.3193 4.67442 13.3535 4.68605 13.3763 4.66279C13.4105 4.63953 13.4105 4.60465 13.3991 4.56977L13.2395 4.27907L13.9465 5.30233C13.9465 6.16279 13.5816 6.40698 13.1711 6.56977H12.8175C12.4526 6.36046 12.0649 6.13953 12.0421 5.25581ZM19.2149 6.32558L9.95526 12.6628V0L19.2149 6.32558ZM11.2439 6.61628C11.4149 6.7907 11.7798 6.86046 12.2246 6.86046C12.6693 6.86046 12.8746 6.76744 12.8632 6.7093H13.1482C13.1368 6.77907 13.5246 6.88372 13.8553 6.88372C14.1974 6.88372 14.6079 6.76744 14.7333 6.65116C14.8588 6.52326 15.0184 5.76744 14.5851 5.33721C14.5851 5.32558 13.1368 4.03488 13.1368 4.03488C13.2167 4.04651 13.3079 4.05814 13.3877 4.05814C13.4333 4.05814 13.4789 4.05814 13.5132 4.03488C13.6386 3.97674 13.6956 3.81395 13.65 3.67442C13.6044 3.53488 13.4561 3.46512 13.3307 3.51163C13.2281 3.55814 13.0228 3.83721 12.9886 3.89535L12.9772 3.90698H12.9658L12.9544 3.89535C12.9088 3.83721 12.7149 3.55814 12.6123 3.51163C12.4868 3.45349 12.35 3.52326 12.293 3.67442C12.293 3.67442 12.293 3.67442 12.293 3.68605C12.2474 3.82558 12.3044 3.98837 12.4298 4.03488C12.4754 4.04651 12.5211 4.05814 12.5553 4.05814C12.6351 4.05814 12.7149 4.04651 12.8061 4.03488C12.8061 4.03488 11.3693 5.32558 11.3579 5.34884C10.9588 5.7907 11.0728 6.45349 11.2439 6.61628ZM14.7904 7.37209H13.0342H11.2781V7.60465C11.2781 7.60465 12.293 7.62791 12.8061 9.03488H13.2737C13.7868 7.62791 14.8018 7.60465 14.8018 7.60465L14.7904 7.37209ZM12.6123 3.63953C12.6009 3.62791 12.5781 3.62791 12.5667 3.62791C12.4982 3.62791 12.4412 3.68605 12.4412 3.76744C12.4412 3.7907 12.4412 3.80233 12.4526 3.82558C12.464 3.86046 12.4868 3.88372 12.5211 3.89535C12.6237 3.90698 12.7263 3.90698 12.8289 3.88372C12.7605 3.80232 12.6921 3.7093 12.6123 3.63953ZM13.4904 3.90698C13.5474 3.88372 13.5816 3.80233 13.5588 3.73256C13.536 3.66279 13.4675 3.62791 13.3991 3.65116C13.3193 3.72093 13.2395 3.80233 13.1825 3.89535C13.2851 3.9186 13.3877 3.9186 13.4904 3.90698ZM6.5114 6.22093L6.30614 5.7907L6.10088 6.22093L5.63333 6.2907L5.97544 6.62791L5.89561 7.10465L6.31754 6.88372L6.73947 7.10465L6.65965 6.62791L7.00175 6.2907L6.5114 6.22093ZM9.31667 0.0116282V12.6744L0.0570175 6.33721L9.31667 0.0116282ZM8.95175 5.74418L7.27544 4.46512L7.26403 4.38372H7.17281H7.11579C7.02456 4.69767 6.67105 4.93023 6.23772 4.93023C5.81579 4.93023 5.47368 4.7093 5.37105 4.40698H5.24561L3.46667 5.76744L4.35614 6.76744L5.10877 6.32558L4.92632 8.76744H7.74298L7.4807 6.39535L8.05088 6.73256L8.95175 5.74418ZM33.9482 7.33721C33.9482 7.33721 33.8912 7.36046 33.7316 7.2907C33.6175 7.24419 33.5833 7.18605 33.5833 7.16279C33.5833 7.11628 33.5491 7.06977 33.5035 7.05814C33.4579 7.04651 33.4009 7.08139 33.3895 7.13953C33.3895 7.16279 33.3667 7.36046 33.6632 7.47674C33.7772 7.52326 33.8684 7.53488 33.9254 7.53488C34.0053 7.53488 34.0395 7.51163 34.0623 7.5C34.1079 7.46512 34.1193 7.40698 34.0851 7.36046C34.0509 7.31395 33.9939 7.30232 33.9482 7.33721ZM39 6.32558L29.7403 12.6628V0L39 6.32558ZM31.3711 6.15116C31.3711 6.15116 31.9298 6.23256 32.4088 5.80232C32.8877 5.37209 33.0816 4.59302 33.0816 4.59302C33.0816 4.59302 32.0667 4.72093 31.6903 5.06977C31.2342 5.51163 31.3711 6.15116 31.3711 6.15116ZM35.0316 7.68605C35.0316 7.32558 34.8605 7.02326 34.4956 6.88372C34.3816 6.83721 34.1763 6.88372 34.0395 6.88372C34.0395 6.69767 34.0395 6.2907 33.9026 5.96512C33.8342 5.7907 33.743 5.66279 33.686 5.54651C33.5947 5.40698 33.5377 5.30233 33.5377 5.17442C33.5377 5.13953 33.5377 5.11628 33.5377 5.0814C33.5377 4.65116 33.5605 4.46512 33.5605 4.46512C33.5719 4.40698 33.5263 4.36046 33.4807 4.36046C33.4351 4.34884 33.3781 4.39535 33.3781 4.44186C33.3781 4.45349 33.3553 4.63953 33.3553 5.0814C33.3553 5.47674 33.3553 5.62791 32.9219 6.06977C32.7851 6.2093 32.6825 6.32558 32.557 6.45349L32.4316 6.59302C32.2605 6.77907 32.0553 7.06977 32.0325 7.10465C31.8956 7.09302 31.7132 7.08139 31.6219 7.11628C31.314 7.24419 31.2114 7.51163 31.2114 7.81395C31.2114 8.24418 31.6561 8.76744 32.1237 8.76744C32.4544 8.76744 32.8079 8.48837 32.9447 8.17442C32.8649 8.01163 32.8193 7.83721 32.8193 7.66279C32.8193 7.52325 32.8421 7.40698 32.8649 7.30232C32.7851 7.2093 32.6825 7.12791 32.5456 7.08139C32.4772 7.05814 32.3632 7.06977 32.2491 7.08139C32.3289 6.97674 32.443 6.81395 32.5456 6.7093L32.6711 6.56977C32.7965 6.44186 32.8991 6.32558 33.0246 6.18605C33.2868 5.9186 33.4009 5.74419 33.4579 5.55814C33.4693 5.58139 33.4807 5.60465 33.5035 5.62791C33.5719 5.73256 33.6404 5.86046 33.7088 6.01163C33.8342 6.30232 33.8342 6.68605 33.8342 6.84884C33.6974 6.83721 33.5377 6.83721 33.4351 6.87209C33.093 7.01163 32.9789 7.31395 32.9789 7.65116C32.9789 8.12791 33.4351 8.7093 33.9939 8.7093C34.5754 8.74418 35.0316 8.16279 35.0316 7.68605ZM32.0439 7.5C32.0439 7.5 31.9982 7.51163 31.85 7.46512C31.736 7.4186 31.7246 7.37209 31.7246 7.36046C31.7246 7.31395 31.6904 7.26744 31.6447 7.25581C31.5991 7.24419 31.5421 7.27907 31.5307 7.33721C31.5307 7.36046 31.5079 7.53488 31.7816 7.65116C31.8842 7.69767 31.964 7.7093 32.0211 7.7093C32.0895 7.7093 32.1237 7.68605 32.1465 7.67442C32.1921 7.63953 32.2035 7.58139 32.1693 7.53488C32.1351 7.47674 32.0895 7.46512 32.0439 7.5ZM24.8711 6.34884C24.8254 6.34884 24.7912 6.38372 24.7912 6.43023V8.56977C24.7912 8.61628 24.8254 8.65116 24.8711 8.65116C24.9167 8.65116 24.9509 8.61628 24.9509 8.56977V6.43023C24.9509 6.38372 24.9167 6.34884 24.8711 6.34884ZM29.1018 0.0116282V12.6744L19.8421 6.33721L29.1018 0.0116282ZM27.9728 6.54651C27.9728 6.66279 28.064 6.74419 28.1667 6.74419C28.2693 6.74419 28.3605 6.65116 28.3605 6.54651C28.3605 6.43023 28.2693 6.34884 28.1667 6.34884C28.064 6.34884 27.9728 6.43023 27.9728 6.54651ZM27.5965 6.16279C27.5965 6.23256 27.6535 6.27907 27.7105 6.27907C27.7675 6.27907 27.8246 6.22093 27.8246 6.16279C27.8246 6.09302 27.7675 6.04651 27.7105 6.04651C27.6535 6.04651 27.5965 6.09302 27.5965 6.16279ZM27.3912 6.59302C27.3912 6.65116 27.4368 6.7093 27.5053 6.7093C27.5623 6.7093 27.6193 6.66279 27.6193 6.59302C27.6193 6.53488 27.5737 6.47674 27.5053 6.47674C27.4482 6.47674 27.3912 6.53488 27.3912 6.59302ZM27.0719 5.81395C27.0719 5.88372 27.1289 5.94186 27.1974 5.94186C27.2658 5.94186 27.3228 5.88372 27.3228 5.81395C27.3228 5.74419 27.2658 5.68605 27.1974 5.68605C27.1289 5.68605 27.0719 5.74419 27.0719 5.81395ZM26.8439 6.61628C26.8439 6.67442 26.8895 6.72093 26.9465 6.72093C27.0035 6.72093 27.0491 6.67442 27.0491 6.61628C27.0491 6.55814 27.0035 6.51163 26.9465 6.51163C26.8895 6.5 26.8439 6.55814 26.8439 6.61628ZM26.4675 7.76744C26.0912 7.58139 25.8518 7.2907 25.8518 6.94186H26.4675V6.68605C26.4675 6.34884 25.7719 5.67442 25.7719 5.32558C25.7719 5.08139 25.7377 4.43023 25.7263 4.04651H25.8632V3.55814H25.0649V4.04651H25.2018C25.1789 4.4186 25.1561 5.08139 25.1561 5.32558C25.1561 5.67442 24.4605 6.31395 24.4605 6.68605V8.7907C24.4605 8.89535 24.5404 8.98837 24.6544 8.98837H26.2851C26.3877 8.98837 26.4789 8.90697 26.4789 8.7907C26.4675 8.80232 26.4675 8.2907 26.4675 7.76744ZM28.6 7.09302H26.0228C26.0228 7.44186 26.5588 7.73256 27.2316 7.74419V8.80232C27.2316 8.83721 26.7526 8.84883 26.7526 8.84883C26.707 8.84883 26.6614 8.89535 26.6614 8.94186C26.6614 8.98837 26.707 9.03488 26.7526 9.03488H27.8588C27.9044 9.03488 27.95 8.98837 27.95 8.94186C27.95 8.89535 27.9044 8.84883 27.8588 8.84883C27.8588 8.84883 27.3798 8.84884 27.3798 8.80232V7.74419C28.0526 7.73256 28.6 7.44186 28.6 7.09302ZM9.95526 14.2209L19.2149 20.5465L9.95526 26.8837V14.2209ZM11.8254 19.2674C11.8254 19.3488 11.8939 19.407 11.9851 19.407H12.4298C12.5211 19.407 12.5895 19.3488 12.5895 19.2674V19.1279C12.5895 19.0465 12.5211 18.9884 12.4298 18.9884H11.9851C11.8939 18.9884 11.8254 19.0465 11.8254 19.1279V19.2674ZM11.4491 22.2209C11.4491 22.3139 11.5175 22.3837 11.6088 22.3837H15.2465C15.3377 22.3837 15.4061 22.3139 15.4061 22.2209V19.6977C15.4061 19.6046 15.3377 19.5349 15.2465 19.5349H14.7561C14.6193 19.2326 14.4711 18.8837 14.414 18.8837H13.0912C13.0456 18.8837 12.886 19.2209 12.7491 19.5349H11.5974C11.5061 19.5349 11.4377 19.6046 11.4377 19.6977L11.4491 22.2209ZM12.5211 20.8837C12.5211 20.186 13.0798 19.6163 13.764 19.6163C14.4482 19.6163 15.007 20.186 15.007 20.8837C15.007 21.5814 14.4482 22.1512 13.764 22.1512C13.0798 22.1512 12.5211 21.5814 12.5211 20.8837ZM12.9316 20.8837C12.9316 21.3605 13.3079 21.7326 13.764 21.7326C14.2316 21.7326 14.5965 21.3488 14.5965 20.8837C14.5965 20.407 14.2202 20.0349 13.764 20.0349C13.3079 20.0349 12.9316 20.407 12.9316 20.8837ZM13.4904 20.7093C13.593 20.5116 13.6614 20.3256 13.536 20.2674C13.4105 20.2093 13.2281 20.314 13.1368 20.5233C13.0342 20.7209 13.057 20.9419 13.1825 21C13.3079 21.0698 13.3877 20.9186 13.4904 20.7093ZM9.31667 14.2209V26.8837L0.0570175 20.5349L9.31667 14.2209ZM2.32632 20.9651C2.67982 20.9651 3.5693 20.9419 4.68684 20.8837C4.90351 20.8721 5.14298 20.8605 5.38246 20.8372C5.35965 20.7907 5.33684 20.7558 5.31404 20.7093C5.1886 20.4884 4.8693 20.1977 4.8693 20.186L4.99474 20.0465C5.00614 20.0581 5.33684 20.3721 5.48509 20.6163C5.5307 20.6977 5.56491 20.7674 5.58772 20.8256C5.67895 20.814 5.78158 20.8139 5.87281 20.8023C5.8614 20.7674 5.8386 20.7442 5.82719 20.7093C5.70175 20.4884 5.38246 20.1977 5.38246 20.186L5.50789 20.0465C5.5193 20.0581 5.85 20.3721 5.99825 20.6163C6.03246 20.6744 6.06667 20.7326 6.08947 20.7907C6.1807 20.7791 6.28333 20.7791 6.37456 20.7674C6.36316 20.7558 6.35175 20.7326 6.35175 20.7093C6.22632 20.4884 5.90702 20.1977 5.90702 20.186L6.03246 20.0465C6.04386 20.0581 6.37456 20.3721 6.52281 20.6163C6.54561 20.6628 6.56842 20.7093 6.59123 20.7442C6.68246 20.7326 6.77368 20.7326 6.86491 20.7209V20.7093C6.73947 20.4884 6.42018 20.1977 6.42018 20.186L6.54561 20.0465C6.55702 20.0581 6.88772 20.3721 7.03596 20.6163C7.05877 20.6512 7.07018 20.6744 7.08158 20.7093C7.60614 20.6628 8.05088 20.6163 8.32456 20.5814L8.31316 20.5698C8.33596 20.5349 8.4386 20.3605 8.29035 19.7442C8.27895 19.7442 8.1079 19.1744 7.98246 18.8605C7.97105 18.8372 7.95965 18.8256 7.93684 18.814C7.93684 18.814 7.68596 18.6628 7.54912 18.8953C7.40088 19.1279 7.36667 19.4767 7.07018 19.5C6.78509 19.5233 6.65965 19.407 6.57982 19.2907C6.5 19.1744 6.47719 19.1279 6.44298 19C6.40877 18.8721 6.40877 18.6977 6.31754 18.6628L6.21491 18.6279C6.10088 18.5814 5.97544 18.6628 5.89561 18.7326C5.81579 18.8139 5.67895 18.9535 5.43947 19.0698C5.2 19.186 4.99474 19.2209 4.99474 19.2209L4.90351 19.3139C4.89211 19.3139 4.8921 19.3256 4.8921 19.3256V19.3372L4.91491 19.3721L4.82368 19.4419L4.74386 19.407H4.73246L4.60702 19.4767C4.59561 19.4767 4.59561 19.4884 4.59561 19.4884L4.62983 19.5349L4.52719 19.593L4.44737 19.5581H4.43596H4.42456L4.31053 19.6279V19.6395L4.34474 19.6977L4.2421 19.7558L4.17369 19.7209C4.17369 19.7209 4.16228 19.7093 4.16228 19.7209L4.03684 19.7791L4.02544 19.7907V19.8023L4.04825 19.8605L3.95702 19.9186L3.8886 19.8837H3.87719H3.86579L3.75175 19.9419L3.74035 19.9535V19.9651L3.76316 20.0233L3.63772 20.093L3.5807 20.0581C3.5807 20.0581 3.5693 20.0465 3.5693 20.0581C3.53509 20.0814 3.50088 20.1163 3.46667 20.1512C3.45526 20.1628 3.45526 20.1628 3.46667 20.1628L3.48947 20.1977C3.46667 20.2326 3.34123 20.2791 3.10175 20.407C2.88509 20.5 2.48596 20.686 2.32632 20.9651ZM8.37018 21.2209L8.34737 20.7326V20.7209C7.69737 20.7907 5.88421 20.9419 4.69825 21.0349C3.29561 21.1512 2.62281 21.1163 2.29211 21.1163L2.2807 21.4535C2.2807 21.4651 2.2921 21.4767 2.30351 21.4767L2.64561 21.5233C2.99912 21.5698 3.36403 21.593 3.72895 21.5698L8.34737 21.2442C8.35877 21.2442 8.37018 21.2326 8.37018 21.2209ZM35.4649 20.0814C35.4649 20 35.4421 19.9419 35.3851 19.8953C35.214 19.7442 34.8491 19.7326 34.6325 19.7558C34.5868 20.2558 34.4386 20.7093 34.2333 21.0814C34.8605 20.7558 35.4649 20.3488 35.4649 20.0814ZM29.7403 14.2209L39 20.5465L29.7403 26.8837V14.2209ZM32.557 17.9302C32.5342 18.1512 32.8535 18.3372 32.8193 18.6046C32.7851 18.8721 32.7623 19.0465 32.7623 19.0465C32.7623 19.0465 33.1158 18.7326 33.1386 18.4535C33.1614 18.1744 32.8535 18 32.8763 17.7791C32.8991 17.5581 32.9333 17.3372 32.9333 17.3372C32.9333 17.3372 32.5798 17.7209 32.557 17.9302ZM31.1658 19.3372C31.1658 20.3488 31.5307 21.2209 32.0667 21.6744H33.7544C33.8114 21.6279 33.857 21.5814 33.9026 21.5233C34.4728 21.2674 35.7272 20.6512 35.7272 20.0698C35.7272 19.907 35.6702 19.7791 35.5561 19.6744C35.3167 19.4535 34.8833 19.4535 34.6439 19.4651C34.6439 19.4186 34.6553 19.3721 34.6553 19.3256H31.7246C31.7132 19.4651 31.7246 19.6628 31.7702 19.8837C31.8728 20.3488 32.0211 20.5698 32.0211 20.5814C32.0667 20.6395 32.0439 20.7326 31.9868 20.7674C31.964 20.7791 31.9412 20.7907 31.907 20.7907C31.8614 20.7907 31.8272 20.7674 31.8044 20.7326C31.793 20.7209 31.6219 20.4651 31.5079 19.9419C31.4509 19.6977 31.4509 19.4767 31.4623 19.3256L31.1658 19.3372ZM30.5956 21.8139C30.5956 22.0116 31.0746 22.1744 31.793 22.2558H34.0281C34.7465 22.1744 35.2254 22 35.2254 21.8139H30.5956ZM27.4026 20.314C27.4254 20.407 27.4368 20.5 27.4368 20.593C27.4368 20.686 27.4254 20.7674 27.4026 20.8488C27.357 21.0581 27.2658 21.2442 27.1404 21.3953C27.0719 21.4767 26.9807 21.5581 26.8895 21.6163C26.6956 21.7442 26.4789 21.8139 26.2281 21.8139C25.9886 21.8139 25.7605 21.7442 25.5667 21.6163C25.4754 21.5581 25.3842 21.4767 25.3158 21.3953C25.1333 21.1744 25.0193 20.8953 25.0193 20.593C25.0193 20.2907 25.1333 20 25.3158 19.7907C25.3842 19.7093 25.4754 19.6279 25.5667 19.5698C25.7605 19.4419 25.9772 19.3721 26.2281 19.3721C26.4675 19.3721 26.6956 19.4419 26.8895 19.5698C26.9807 19.6279 27.0719 19.7093 27.1404 19.7907C27.2658 19.9419 27.357 20.1163 27.4026 20.314ZM26.8667 20.0698C26.8211 20.0116 26.7412 20.0116 26.6842 20.0581L26.3307 20.3721C26.2965 20.3605 26.2623 20.3488 26.2281 20.3488C26.2053 20.3488 26.1825 20.3605 26.1596 20.3605L25.6693 19.7558C25.6237 19.6977 25.5439 19.6977 25.4868 19.7326C25.4298 19.7791 25.4298 19.8605 25.464 19.9186L25.9658 20.5465C25.9658 20.5581 25.9544 20.5814 25.9544 20.593C25.9544 20.7326 26.0684 20.8488 26.2053 20.8488C26.3421 20.8488 26.4561 20.7326 26.4561 20.593V20.5814L26.8325 20.2442C26.9009 20.1977 26.9123 20.1163 26.8667 20.0698ZM25.5781 21.9535V22.1977H26.8895V21.9535C26.6956 22.0581 26.4675 22.1163 26.2281 22.1163C26 22.1046 25.7719 22.0465 25.5781 21.9535ZM26.8895 19.2326V18.9884H25.5781V19.2326C25.7719 19.1279 26 19.0698 26.2395 19.0698C26.4675 19.0814 26.6956 19.1395 26.8895 19.2326ZM29.1018 14.2209V26.8837L19.8421 20.5349L29.1018 14.2209ZM27.9386 20.5814C27.9386 20.4302 27.9956 20.3023 27.6877 20.2907C27.6193 19.9302 27.414 19.6163 27.1404 19.3953V18.7907C27.1404 18.7558 27.1175 18.7326 27.0833 18.7326H26.7868V18.1628H25.6921V18.7326H25.3956C25.3614 18.7326 25.3386 18.7558 25.3386 18.7907V19.3953C24.9851 19.6744 24.757 20.1046 24.757 20.593C24.757 21.0814 24.9851 21.5116 25.3386 21.7907V22.3953C25.3386 22.4302 25.3614 22.4535 25.3956 22.4535H25.6921V23.0233H26.7868V22.4535H27.0833C27.1175 22.4535 27.1404 22.4302 27.1404 22.3953V21.7907C27.4254 21.5698 27.6193 21.2442 27.6877 20.8721C27.9956 20.8605 27.9386 20.7442 27.9386 20.5814ZM19.8535 21.3256L29.1132 27.6512L19.8535 34V21.3256ZM20.7658 26.5814H25.1105V26.4535C25.1105 26.3488 25.0307 26.2558 24.9167 26.2558H23.514C22.9781 26.2558 22.8298 25.4767 21.8833 25.4767C21.1079 25.4767 20.7544 26.093 20.7544 26.4419L20.7658 26.5814ZM20.3667 28.6163C20.3895 28.6395 20.4123 28.6628 20.4465 28.6628H20.8V29.5C20.8 29.5581 20.8456 29.593 20.8912 29.593C20.9368 29.593 20.9825 29.5465 20.9825 29.5V28.6628H24.9737V29.5C24.9737 29.5581 25.0193 29.593 25.0649 29.593C25.1219 29.593 25.1561 29.5465 25.1561 29.5V28.6628H25.407C25.4412 28.6628 25.464 28.6512 25.4868 28.6163C25.5096 28.593 25.5096 28.5581 25.4982 28.5233L25.1105 27.4651C25.1105 27.4535 25.0991 27.4535 25.0877 27.4419V26.7442H20.743V27.4186C20.7316 27.4302 20.7202 27.4419 20.7088 27.4535L20.3211 28.5116C20.3439 28.5581 20.3439 28.593 20.3667 28.6163ZM24.9737 27.6163H24.6202L24.7342 28.093H24.0158L23.9702 27.6163H23.6509L23.6851 28.093H23.0693L23.0465 27.6163H22.7614L22.7386 28.093H22.1228L22.157 27.6163H21.8719L21.7921 28.093H21.1079L21.2219 27.6163H20.914L20.6061 28.4651H25.3158L24.9737 27.6163ZM18.5991 30.0116H17.0825V27.8023H18.5991V30.0116ZM17.9377 29.907C17.9377 29.8488 17.8921 29.814 17.8465 29.814C17.7895 29.814 17.7553 29.8605 17.7553 29.907C17.7553 29.9651 17.8009 30 17.8465 30C17.8921 30 17.9377 29.9535 17.9377 29.907ZM18.4851 27.9302H17.1965V29.7907H18.4851V27.9302ZM19.2149 21.3256V33.9884L9.95526 27.6395L19.2149 21.3256ZM16.9228 28.7326H15.9421H14.9272H13.3535V25.9419H17.5272V27.6163H17.6412V25.8256H13.2281V28.8372H14.9158V29.4186H14.3684V29.8023H16.4895V29.4186H15.9421V28.8372H16.9228V28.7326ZM16.9228 27.6163H17.3789V26.093H13.4675V28.5698H16.9228V27.6163ZM18.7132 27.6977H16.9798V30.1279H18.7132V27.6977ZM9.25965 13.4535L0 19.8023V7.13953L9.25965 13.4535ZM1.02632 14.314H5.27982L5.02895 13.0698C5.01754 13.0116 4.97193 12.9651 4.90351 12.9419C4.90351 12.9186 4.90351 12.8953 4.8921 12.8721L3.38684 10.6047C3.37544 10.5233 3.32983 10.4651 3.2614 10.4186L3.21579 10.3488C3.19298 10.3256 3.17018 10.3023 3.13597 10.3023C3.10175 10.3023 3.07895 10.314 3.05614 10.3488L3.03333 10.3837C2.9079 10.4186 2.81667 10.5233 2.81667 10.6628C2.81667 10.6744 2.81667 10.686 2.81667 10.6977L1.36842 12.8721C1.34561 12.8953 1.34561 12.9302 1.35702 12.9651C1.3114 12.9884 1.27719 13.0349 1.26579 13.0814L1.02632 14.314ZM5.35965 14.6744L5.32544 14.5116H0.992105L0.957895 14.6744C0.912281 14.8953 1.11754 15.093 1.39123 15.093H4.92632C5.2 15.093 5.40526 14.8953 5.35965 14.6744ZM3.10175 10.9535C3.03333 10.9535 2.97632 10.9302 2.9193 10.8837L1.56228 12.9186H4.69825L3.31842 10.8488C3.27281 10.907 3.19298 10.9535 3.10175 10.9535ZM32.3061 13.1046C32.3061 13.0233 32.2377 12.9651 32.1579 12.9651C32.0781 12.9651 32.0211 13.0349 32.0211 13.1163C32.0211 13.1977 32.0895 13.2558 32.1693 13.2558C32.2491 13.2558 32.3061 13.186 32.3061 13.1046ZM39 7.13953V19.8023L29.7403 13.4535L39 7.13953ZM32.1921 13.6046C32.557 13.314 33.2868 13.1163 33.6404 13.0349C33.9368 12.9651 34.2789 12.9302 34.6325 12.9302C35.2254 12.9302 35.7956 13.0349 36.2518 13.2209C36.514 13.3256 36.6965 13.4186 36.8219 13.4884C36.9702 13.5698 37.0386 13.6046 37.0956 13.6046C37.1298 13.6046 37.164 13.593 37.2096 13.5814C37.2325 13.5698 37.2439 13.5698 37.2667 13.5698C37.0386 13.4767 36.8219 13.3605 36.9474 13.2791C37.1754 13.1279 37.8254 13.2674 37.8254 13.2674C37.8254 13.2674 37.4377 12.7674 36.4912 12.9767C36.1377 13.0581 36.1719 12.8372 35.4421 12.5698C35.2368 12.4884 34.9746 12.4419 34.7237 12.3953C34.6096 12.3721 34.5184 11.9651 34.393 11.9535C34.2219 11.9419 33.9482 12.3488 33.7772 12.3605C33.4465 12.3721 33.0702 12.407 32.7851 12.4884C32.2719 12.6279 31.4395 12.9535 31.3596 13.2442C31.3254 13.3837 31.7588 13.5233 32.1921 13.6046ZM37.6316 13.9535C37.8711 13.8023 38.5211 13.9535 38.5211 13.9535C38.5211 13.9535 38.1219 13.4767 37.2553 13.7558C36.9132 13.8721 36.8789 13.686 36.1605 13.3953C35.4421 13.1047 34.4272 13.0465 33.6632 13.2209C33.15 13.3488 32.2491 13.6279 32.1579 13.9186C32.0667 14.2093 33.7544 14.5116 33.8 14.4419C33.8456 14.3721 33.8456 13.9884 33.8456 13.9884C33.8456 13.9884 33.857 14.3256 34.3816 14.686C34.9061 15.0465 35.9439 14.7907 35.6246 14.7209C35.3167 14.6512 35.043 14.3488 35.043 14.3488C35.043 14.3488 35.2596 14.4419 35.3053 14.4419C36.0009 14.593 37.0614 14.0698 37.2895 14.2558C37.5404 14.4535 38.3728 14.3256 38.3728 14.3256C38.3728 14.3256 37.3921 14.093 37.6316 13.9535ZM32.9675 13.686C32.8877 13.686 32.8193 13.7558 32.8193 13.8372C32.8193 13.9186 32.8877 13.9884 32.9675 13.9884C33.0474 13.9884 33.1158 13.9186 33.1158 13.8372C33.1044 13.7442 33.036 13.686 32.9675 13.686ZM20.264 15.314L19.6939 17.5814L18.8386 18L18.8728 17.0581L18.9412 15.3488L18.143 15.3837L17.9149 14.6279L17.4018 15.093L17.1281 18.2326L15.543 17.1279L16.364 16.6395L16.2956 15.2442L15.6342 15.5698L15.1895 13.9884L16.2158 13.814L16.1702 12.5L15.3149 11.3721L16.0789 11.2093L17.0254 9.39535L17.6298 10.9186L18.2342 11.1395L18.2 11.5814L19.2491 11.5233L18.7474 9.36046L20.5263 10.1395L20.1272 11.5L21.2561 11.2674L21.9175 9.13953L23.4684 10.3023L22.0772 11.3372L23.3772 11.4302L23.8219 12.6628L22.7728 12.6279L22.6474 14.0233L23.6965 14.0581L24.0728 15.314L22.7044 15.407L22.3851 17.6977L21.564 18.2442L21.0281 15.2674L20.264 15.314ZM20.5719 13.0233L20.4807 13.8372L20.5719 14.0233L21.4956 14L21.3702 12.7442L20.5377 12.9302L20.5719 13.0233ZM19.0211 12.7326L18.3254 12.7674L18.1088 11.9767L17.5272 12.5349V13.5698L18.4167 13.6395L18.2114 14.1163L19.0211 14.093V12.7326Z" fill="var(--fill-0, white)"/>
</svg>
