<svg preserveAspectRatio="none" width="100%" height="100%" overflow="visible" style="display: block;" viewBox="0 0 53 20" fill="none" xmlns="http://www.w3.org/2000/svg">
<path id="Vector" d="M20.8754 8.61775C20.3066 8.10508 19.6402 7.71441 18.9169 7.46952C18.2127 7.22988 17.4746 7.10712 16.7314 7.10603C15.716 7.07551 14.7106 7.31636 13.8174 7.80412L13.7123 7.86911C13.9553 7.26724 14.2766 6.7006 14.6677 6.18408C16.5236 3.77689 19.1151 3.56265 20.3524 3.53617L21.334 0.0698222C20.2807 -0.0192438 15.1359 -0.531975 11.6391 4.03446C10.0914 6.05169 9.46799 8.59127 9.25064 10.5507L9.2363 10.6855C9.1293 11.5916 9.1149 12.5063 9.19331 13.4153C9.24515 14.1794 9.38544 14.9347 9.6113 15.666C9.88402 16.5777 10.3539 17.417 10.9871 18.1237C11.5959 18.7803 12.3554 19.2763 13.1988 19.5681C14.1031 19.8684 15.0509 20.014 16.0029 19.9989C16.8401 19.9978 17.6714 19.8571 18.4631 19.5825C19.257 19.3124 19.9935 18.8943 20.6342 18.35C21.2909 17.7806 21.8194 17.0764 22.1843 16.2846C22.5902 15.3894 22.7918 14.4138 22.7743 13.4297C22.7944 12.4655 22.6197 11.5073 22.2608 10.6133C21.9479 9.85483 21.4752 9.17393 20.8754 8.61775ZM19.0912 13.8365C19.0737 14.5699 18.768 15.2663 18.2414 15.7728C17.7147 16.2792 17.0101 16.5542 16.2824 16.5374H15.9766C15.6162 16.5457 15.2577 16.4824 14.9216 16.351C14.5854 16.2196 14.2783 16.0228 14.0177 15.7718C13.7571 15.5207 13.5481 15.2204 13.4026 14.8879C13.2572 14.5555 13.1782 14.1974 13.1702 13.8341V13.2684C13.1871 12.5352 13.4922 11.8388 14.0185 11.3324C14.5448 10.8259 15.2491 10.5508 15.9766 10.5676H16.2848C17.0123 10.5508 17.7166 10.8259 18.2429 11.3324C18.7692 11.8388 19.0743 12.5352 19.0912 13.2684V13.8365ZM0 2.20981L1.31128 5.20436L3.33195 4.61459L3.32717 19.9965L7.27774 19.9989L7.28252 0.00723526L0 2.20981ZM37.5638 12.1202C37.3213 11.5255 36.9823 10.9755 36.5607 10.493C36.1703 10.0474 35.7163 9.66282 35.2136 9.35194L35.0464 9.24843C35.4464 8.94322 35.8102 8.59268 36.1307 8.20371C36.8197 7.331 37.1779 6.23956 37.1411 5.12492C37.1491 4.37319 36.9788 3.6304 36.6443 2.95845C36.3267 2.33316 35.8805 1.78333 35.3354 1.34563C34.7719 0.901095 34.1335 0.562678 33.4509 0.346649C31.9468 -0.11555 30.3403 -0.11555 28.8363 0.346649C28.1551 0.563463 27.5178 0.900936 26.9542 1.34323C26.4077 1.78049 25.9612 2.33143 25.6453 2.95845C25.3096 3.62999 25.1392 4.37305 25.1485 5.12492C25.1116 6.23469 25.4671 7.32156 26.1516 8.19168C26.4701 8.58361 26.8315 8.9381 27.2288 9.24843C27.1635 9.28695 27.0991 9.32787 27.0354 9.3712C26.5444 9.69035 26.0991 10.0759 25.7121 10.517C25.2952 10.9946 24.9573 11.5368 24.7114 12.1226C24.4368 12.8108 24.302 13.5475 24.3149 14.2891C24.29 15.2185 24.503 16.1387 24.9335 16.9611C25.3214 17.6799 25.8752 18.2942 26.5481 18.752C27.2089 19.2028 27.9453 19.529 28.7216 19.7149C30.3015 20.0936 31.9474 20.0936 33.5273 19.7149C34.309 19.5296 35.051 19.2034 35.7175 18.752C36.3861 18.2926 36.9377 17.6806 37.3274 16.9659C37.7584 16.1427 37.973 15.222 37.9508 14.2915C37.9636 13.5452 37.8288 12.8038 37.5543 12.1106M29.1563 4.28722C29.775 3.44229 30.8665 3.40137 31.1292 3.40378C31.392 3.40619 32.4907 3.44229 33.1093 4.28962C33.3401 4.59318 33.4615 4.96682 33.4537 5.34916C33.4459 5.7315 33.3093 6.09978 33.0663 6.39351C32.7222 6.77688 32.298 7.07859 31.8243 7.27695C31.603 7.39081 31.371 7.48194 31.1316 7.54896C30.8953 7.47974 30.6658 7.38868 30.4461 7.27695C29.9742 7.07915 29.5522 6.77728 29.2113 6.39351C28.9674 6.09987 28.8299 5.73126 28.8217 5.34839C28.8134 4.96552 28.9348 4.59124 29.1659 4.28722M33.6348 15.4132C32.8322 16.5326 31.4135 16.5855 31.0719 16.5831C30.7304 16.5807 29.302 16.5302 28.4947 15.4132C28.1934 15.0104 28.0354 14.517 28.0462 14.0127C28.0571 13.5083 28.2361 13.0223 28.5544 12.6329C28.9991 12.1268 29.5509 11.7278 30.1691 11.4655C30.4559 11.3156 30.7567 11.1946 31.0671 11.1044H31.0791C31.3873 11.1965 31.6864 11.3174 31.9724 11.4655C32.5882 11.7271 33.137 12.1263 33.5774 12.6329C33.8935 13.0235 34.0708 13.5093 34.0812 14.0131C34.0916 14.517 33.9344 15.0098 33.6348 15.4132ZM52.5922 12.1202C52.3505 11.5256 52.0123 10.9757 51.5915 10.493C51.2005 10.0479 50.7466 9.66346 50.2444 9.35194C50.1894 9.31583 50.1321 9.28213 50.0748 9.24843C50.4758 8.94449 50.8398 8.59381 51.1591 8.20371C51.8502 7.33212 52.2086 6.2399 52.1695 5.12492C52.1789 4.37331 52.0093 3.63039 51.6751 2.95845C51.3573 2.33194 50.9102 1.78121 50.3638 1.34323C49.8024 0.901931 49.1663 0.566738 48.4864 0.35387C46.9832 -0.108276 45.3774 -0.108276 43.8742 0.35387C43.1921 0.570135 42.5539 0.907644 41.9897 1.35045C41.4446 1.78851 40.9991 2.3393 40.6832 2.96567C40.3457 3.63661 40.1744 4.37995 40.184 5.13214C40.1479 6.23841 40.5007 7.32199 41.18 8.19168C41.5045 8.5847 41.8723 8.93923 42.2763 9.24843C42.2111 9.28695 42.1466 9.32787 42.0829 9.3712C41.5923 9.69097 41.1472 10.0764 40.7596 10.517C40.3435 10.9947 40.0064 11.5369 39.7613 12.1226C39.4859 12.8106 39.3503 13.5473 39.3624 14.2891C39.3387 15.2184 39.5517 16.1383 39.981 16.9611C40.3703 17.6789 40.9238 18.2928 41.5956 18.752C42.2566 19.2023 42.993 19.5285 43.7691 19.7149C45.349 20.0936 46.995 20.0936 48.5748 19.7149C49.3574 19.5301 50.1003 19.2039 50.7674 18.752C51.436 18.2926 51.9876 17.6806 52.3773 16.9659C52.8077 16.1426 53.0216 15.2218 52.9983 14.2915C53.0111 13.5452 52.8763 12.8038 52.6018 12.1106M44.1871 4.29925C44.8058 3.45192 45.8949 3.411 46.1576 3.41341C46.4204 3.41581 47.5191 3.45192 48.1401 4.29925C48.3705 4.60308 48.4916 4.97687 48.4833 5.35921C48.4751 5.74155 48.338 6.10969 48.0947 6.40314C47.7511 6.78705 47.3267 7.08886 46.8527 7.28657C46.6321 7.40007 46.4009 7.49119 46.1624 7.55859C45.9252 7.48977 45.6949 7.39871 45.4745 7.28657C45.0026 7.08878 44.5806 6.7869 44.2397 6.40314C43.9967 6.10941 43.8601 5.74113 43.8523 5.35879C43.8444 4.97645 43.9659 4.60281 44.1967 4.29925M48.8184 15.4132C48.0159 16.5326 46.5971 16.5855 46.2556 16.5831C45.914 16.5807 44.4881 16.5302 43.6808 15.4132C43.3791 15.0107 43.2207 14.5175 43.2311 14.0131C43.2415 13.5087 43.4201 13.0225 43.7381 12.6329C44.1828 12.1268 44.7346 11.7278 45.3527 11.4655C45.6402 11.3152 45.9419 11.1942 46.2532 11.1044C46.5622 11.1966 46.862 11.3175 47.1489 11.4655C47.7647 11.7271 48.3135 12.1263 48.7539 12.6329C49.0714 13.0225 49.2503 13.5079 49.2619 14.0119C49.2736 14.5158 49.1175 15.0092 48.8184 15.4132Z" fill="var(--fill-0, #FF4000)"/>
</svg>
