<svg preserveAspectRatio="none" width="100%" height="100%" overflow="visible" style="display: block;" viewBox="0 0 39 30" fill="none" xmlns="http://www.w3.org/2000/svg">
<path id="Vector" fill-rule="evenodd" clip-rule="evenodd" d="M37.8474 5.87173C35.8868 2.07169 29.2295 1.18508 23.6076 2.36811L19.9589 3.11437L17.6343 3.73068H17.602L17.5697 3.60093C17.9301 2.9681 18.6051 2.12534 18.6999 1.33013L13.8888 0C13.5229 0.962301 13.157 1.92501 12.7909 2.88711C11.9982 4.73439 10.9634 6.4199 9.82034 7.91527C9.45524 8.39305 9.04973 8.99752 8.52868 9.31006L8.43183 9.44001C8.67996 9.72583 11.2966 11.2141 11.7252 11.3216L13.7272 9.18052L14.3406 8.40203L16.5363 7.46135L16.6009 7.55866C15.7395 9.23703 14.2525 11.6025 12.8553 13.0411V13.106L14.7927 14.8576H14.8572L16.8269 12.9436L17.7957 11.9056L19.567 11.9005L19.5584 14.9868C19.5584 14.9868 15.055 14.9876 12.7586 14.9876V17.3508L19.5664 17.3555C19.5664 17.3555 19.5631 22.5024 19.5631 23.1299C19.159 23.2362 18.6364 23.1397 18.3123 23.065C16.1913 22.577 16.5296 21.0582 16.7623 18.8156H11.9837C11.4308 20.5347 11.7053 23.0379 12.3389 24.0708C12.8616 24.9229 13.2232 25.5137 14.3408 26.0172C15.2 26.4042 16.287 26.4391 17.5376 26.4389C21.1328 26.4385 24.0745 25.8081 26.4495 24.59C27.152 24.2293 27.8591 23.8935 28.4189 23.3896H28.5483C28.6632 23.8694 29.0111 25.6459 29.2909 25.8875L33.0365 24.2656L30.4855 17.9396C30.1973 17.889 27.5003 18.7548 27.3533 18.9453L27.9021 21.0864C27.1512 21.6229 26.2263 22.199 25.2222 22.4489C25.0264 22.2392 25.1253 21.5001 25.1253 21.1188V17.3196L31.8129 17.3233L31.8092 14.956L25.1444 14.9547L25.1436 11.8975L31.8092 11.9012V9.5053L20.0559 9.5055C20.0559 9.5055 20.0318 9.50632 19.9914 9.40819C20.5701 8.62072 21.2164 7.92812 21.6059 6.94277L21.5734 6.87789L19.7331 6.39113L19.6687 6.22895L23.0267 5.15852C26.2626 4.15093 31.5249 3.49464 33.004 6.52108C33.5911 7.72166 33.4239 9.78315 33.4237 11.5492V20.5351C33.4239 22.9747 33.6674 24.5841 32.3412 26.0311C31.2382 27.0762 29.9342 27.2333 29.0145 27.2176C28.0946 27.2021 26.8645 26.841 25.6421 26.5686H25.6098C25.4388 27.0666 24.9864 28.7654 24.9375 29.3262C25.8941 29.5516 26.9801 29.7016 28.0313 29.8776C29.0249 30.0439 30.3789 30.0274 31.3208 29.908C35.2042 29.4158 36.9785 28.1301 38.1057 25.336C39.4932 20.8832 39.1567 8.23352 37.8474 5.87173ZM7.58547 6.7153C11.536 5.85888 11.0424 0.43127 6.42296 0.519197C6.15391 0.573463 5.88486 0.627321 5.6156 0.681383C4.61939 1.03636 3.80837 1.76058 3.45221 2.75756C2.60098 5.14138 5.23364 7.22511 7.58547 6.7153ZM8.42187 11.8679C7.75462 11.2208 7.04615 10.5727 6.46235 10.1214C5.9076 9.69257 4.43583 8.29166 3.81467 8.14253L1.71585 11.484L2.87816 12.1976C3.82441 12.8404 4.82875 13.421 5.72363 13.9767C6.4457 14.4757 7.03782 15.01 7.33409 15.6688C7.83767 16.7257 7.26951 17.9946 6.8175 18.6856C5.58819 20.5651 3.91681 22.1188 2.36158 23.6813C1.1022 24.9468 0 25.9199 0 25.9199C0 25.9199 0.67172 26.3091 0.973059 26.5038C2.86537 27.6786 5.11039 29.2464 5.33213 29.1963C6.72207 25.856 8.48726 22.9632 9.65891 19.3668C10.104 18.0008 10.7036 15.9629 10.208 14.2736C9.91273 13.2688 9.19858 12.6209 8.42187 11.8679Z" fill="var(--fill-0, white)"/>
</svg>
