<svg preserveAspectRatio="none" width="100%" height="100%" overflow="visible" style="display: block;" viewBox="0 0 24 24" fill="none" xmlns="http://www.w3.org/2000/svg">
<g id="solar:home-2-bold-duotone">
<path id="Vector" opacity="0.5" d="M1.99999 12.2041C1.99999 9.9151 1.99999 8.7711 2.51999 7.8231C3.03799 6.8741 3.98699 6.2861 5.88399 5.1081L7.88399 3.8671C9.88899 2.6221 10.892 2.0001 12 2.0001C13.108 2.0001 14.11 2.6221 16.116 3.8671L18.116 5.1081C20.013 6.2861 20.962 6.8741 21.481 7.8231C22 8.7721 22 9.9151 22 12.2031V13.7251C22 17.6251 22 19.5761 20.828 20.7881C19.656 22.0001 17.771 22.0001 14 22.0001H9.99999C6.22899 22.0001 4.34299 22.0001 3.17199 20.7881C2.00099 19.5761 1.99999 17.6261 1.99999 13.7251V12.2041Z" fill="var(--fill-0, #1B8918)"/>
<path id="Vector_2" d="M11.2499 18.0001C11.2499 18.199 11.3289 18.3898 11.4696 18.5304C11.6102 18.6711 11.801 18.7501 11.9999 18.7501C12.1988 18.7501 12.3896 18.6711 12.5302 18.5304C12.6709 18.3898 12.7499 18.199 12.7499 18.0001V15.0001C12.7499 14.8012 12.6709 14.6104 12.5302 14.4698C12.3896 14.3291 12.1988 14.2501 11.9999 14.2501C11.801 14.2501 11.6102 14.3291 11.4696 14.4698C11.3289 14.6104 11.2499 14.8012 11.2499 15.0001V18.0001Z" fill="var(--fill-0, #1B8918)"/>
</g>
</svg>
