<svg preserveAspectRatio="none" width="100%" height="100%" overflow="visible" style="display: block;" viewBox="0 0 24 24" fill="none" xmlns="http://www.w3.org/2000/svg">
<g id="solar:box-linear">
<path id="Vector" d="M20.9996 7.5001L16.9996 9.5001M16.9996 9.5001L16.4996 9.7501L11.9996 12.0001M16.9996 9.5001V13.0001M16.9996 9.5001L7.49965 4.5001M11.9996 12.0001L2.99965 7.5001M11.9996 12.0001V21.5001M15.5776 3.3821L17.5776 4.4321C19.7286 5.5611 20.8046 6.1251 21.4026 7.1401C21.9996 8.1541 21.9996 9.4171 21.9996 11.9421V12.0591C21.9996 14.5831 21.9996 15.8461 21.4026 16.8601C20.8046 17.8751 19.7286 18.4401 17.5776 19.5691L15.5776 20.6181C13.8216 21.5391 12.9436 22.0001 11.9996 22.0001C11.0556 22.0001 10.1776 21.5401 8.42165 20.6181L6.42165 19.5681C4.27065 18.4391 3.19465 17.8751 2.59665 16.8601C1.99965 15.8461 1.99965 14.5831 1.99965 12.0601V11.9431C1.99965 9.4181 1.99965 8.1551 2.59665 7.1411C3.19465 6.1261 4.27065 5.5611 6.42165 4.4331L8.42165 3.3831C10.1776 2.4611 11.0556 2.0001 11.9996 2.0001C12.9436 2.0001 13.8216 2.4601 15.5776 3.3821Z" stroke="var(--stroke-0, #9F9F9F)" stroke-width="1.5" stroke-linecap="round"/>
</g>
</svg>
