<svg viewBox="0 0 21.5 21.4999" fill="none" xmlns="http://www.w3.org/2000/svg">
<g id="Group">
<path id="Vector" d="M14.75 8.7498L16.9 9.3948C18.273 9.8068 18.96 10.0128 19.355 10.5448C19.75 11.0748 19.75 11.7928 19.75 13.2258V20.7498" stroke="var(--stroke-0, #1B8918)" stroke-width="1.5" stroke-linejoin="round"/>
<path id="Vector_2" d="M6.75069 7.74981H9.75069M6.75069 11.7498H9.75069" stroke="var(--stroke-0, #1B8918)" stroke-width="1.5" stroke-linecap="round" stroke-linejoin="round"/>
<path id="Vector_3" d="M10.7508 20.7498V17.7498C10.7508 16.8068 10.7508 16.3358 10.4578 16.0428C10.1648 15.7498 9.69377 15.7498 8.75077 15.7498H7.75077C6.80777 15.7498 6.33677 15.7498 6.04377 16.0428C5.75077 16.3358 5.75077 16.8068 5.75077 17.7498V20.7498" stroke="var(--stroke-0, #1B8918)" stroke-width="1.5" stroke-linejoin="round"/>
<path id="Vector_4" d="M0.75 20.7498H20.75" stroke="var(--stroke-0, #1B8918)" stroke-width="1.5" stroke-linecap="round"/>
<path id="Vector_5" d="M1.74992 20.7499V5.46693C1.74992 2.95693 1.74992 1.70093 2.54092 1.07793C3.33192 0.454932 4.49692 0.793932 6.82792 1.46993L11.8279 2.92093C13.2339 3.32893 13.9369 3.53293 14.3429 4.08993C14.7499 4.64593 14.7499 5.40293 14.7499 6.91893V20.7499" stroke="var(--stroke-0, #1B8918)" stroke-width="1.5" stroke-linecap="round" stroke-linejoin="round"/>
</g>
</svg>
