<svg viewBox="0 0 17.5 21.5" fill="none" xmlns="http://www.w3.org/2000/svg">
<g id="Group">
<path id="Vector (Stroke)" d="M16 6.75C16 5.315 15.998 4.31395 15.8965 3.5586C15.8101 2.91633 15.6617 2.53805 15.4404 2.26856L15.3408 2.15918C15.0645 1.88254 14.6753 1.70221 13.9414 1.60352C13.1861 1.50197 12.185 1.5 10.75 1.5H6.75C5.315 1.5 4.31395 1.50197 3.5586 1.60352C2.91633 1.68989 2.53805 1.83828 2.26856 2.05957L2.15918 2.15918C1.88254 2.43551 1.70221 2.82472 1.60352 3.5586C1.50197 4.31395 1.5 5.315 1.5 6.75V14.75C1.5 16.185 1.50197 17.1861 1.60352 17.9414C1.70221 18.6753 1.88254 19.0645 2.15918 19.3408L2.26856 19.4404C2.53805 19.6617 2.91633 19.8101 3.5586 19.8965C4.31395 19.998 5.315 20 6.75 20H10.75C12.185 20 13.1861 19.998 13.9414 19.8965C14.6753 19.7978 15.0645 19.6175 15.3408 19.3408L15.4404 19.2314C15.6617 18.9619 15.8101 18.5837 15.8965 17.9414C15.998 17.1861 16 16.185 16 14.75V6.75ZM17.5 14.75C17.5 16.1427 17.5019 17.263 17.3838 18.1416C17.2703 18.9856 17.0351 19.7047 16.5098 20.2871L16.4014 20.4014C15.7997 21.0035 15.0416 21.2628 14.1416 21.3838C13.263 21.5019 12.1427 21.5 10.75 21.5H6.75C5.35729 21.5 4.23698 21.5019 3.3584 21.3838C2.51445 21.2703 1.79527 21.0351 1.21289 20.5098L1.09863 20.4014C0.496492 19.7997 0.237246 19.0416 0.116213 18.1416C-0.00192624 17.263 1.92668e-06 16.1427 1.92668e-06 14.75V6.75C1.92668e-06 5.35729 -0.00192618 4.23698 0.116213 3.3584C0.237246 2.45843 0.496492 1.70026 1.09863 1.09863L1.21289 0.990236C1.79527 0.464896 2.51445 0.229712 3.3584 0.116213C4.23698 -0.00192615 5.35729 1.92642e-06 6.75 1.92642e-06H10.75C12.1427 1.92642e-06 13.263 -0.00192606 14.1416 0.116213C15.0416 0.237246 15.7997 0.496492 16.4014 1.09863L16.5098 1.21289C17.0351 1.79527 17.2703 2.51445 17.3838 3.3584C17.5019 4.23698 17.5 5.35729 17.5 6.75V14.75Z" fill="var(--fill-0, #1B8918)"/>
<path id="Vector (Stroke)_2" d="M16.6484 13.9999V15.4999H4.64844C3.67162 15.4999 3.32827 15.5061 3.06543 15.5761C2.68392 15.6784 2.33588 15.8797 2.05664 16.1591C1.77745 16.4384 1.57673 16.7863 1.47461 17.1679L0.750002 16.9735L0.0253925 16.7802C0.195598 16.1442 0.530699 15.5642 0.996096 15.0985C1.46144 14.633 2.04101 14.2983 2.67676 14.1278L2.67774 14.1269C3.1787 13.9932 3.76668 13.9999 4.64844 13.9999H16.6484Z" fill="var(--fill-0, #1B8918)"/>
<path id="Vector (Stroke)_3" d="M16.249 17C16.6633 17 16.999 17.3358 16.999 17.75C16.999 18.1642 16.6633 18.5 16.249 18.5H4.74904C4.33483 18.5 3.99904 18.1642 3.99904 17.75C3.99904 17.3358 4.33483 17 4.74904 17H16.249ZM9.74904 8.5C10.1633 8.5 10.499 8.83579 10.499 9.25C10.499 9.66422 10.1633 10 9.74904 10H4.74904C4.33483 10 3.99904 9.66422 3.99904 9.25C3.99904 8.83579 4.33483 8.5 4.74904 8.5H9.74904ZM12.749 5C13.1633 5 13.499 5.33579 13.499 5.75C13.499 6.16422 13.1633 6.5 12.749 6.5H4.74904C4.33483 6.5 3.99904 6.16422 3.99904 5.75C3.99904 5.33579 4.33483 5 4.74904 5H12.749Z" fill="var(--fill-0, #1B8918)"/>
</g>
</svg>
