<svg viewBox="0 0 48 48" fill="none" xmlns="http://www.w3.org/2000/svg">
<g id="Group">
<path id="Vector" d="M48 24C48 10.7452 37.2549 0 24 0C10.7452 0 0 10.7452 0 24C0 37.2548 10.7452 48 24 48C37.2549 48 48 37.2548 48 24Z" fill="var(--fill-0, #FF0209)"/>
<g id="Group_2">
<path id="Vector_2" d="M34.1879 34.6298C33.4728 34.7074 32.7409 34.7209 32.0394 34.7192C26.5668 34.7141 21.0942 34.7091 15.6233 34.7057C13.9015 34.7057 12.0261 34.6501 10.6955 33.5556C9.19624 32.3194 8.88425 30.1759 8.76283 28.2365C8.59418 25.5786 8.58069 22.9123 8.71898 20.2528C8.79487 18.7923 8.92809 17.2964 9.55714 15.9742C10.0091 15.0247 10.763 14.1714 11.7276 13.7228C12.8491 13.2017 14.0229 13.2944 15.2304 13.2927C18.121 13.2894 21.0116 13.2877 23.9022 13.2843C26.9075 13.2809 29.9144 13.2793 32.9197 13.2759C34.3397 13.2759 35.8643 13.3045 37.0229 14.1259C38.5187 15.185 38.9252 17.2003 39.1124 19.0233C39.4581 22.3811 39.4632 25.7742 39.1259 29.132C38.9859 30.5166 38.7531 31.9804 37.8408 33.0311C36.9368 34.0733 35.5961 34.4747 34.1896 34.6281L34.1879 34.6298Z" fill="var(--fill-0, white)"/>
<path id="Vector_3" d="M28.8941 24L20.7384 19.2914V28.7086L28.8941 24Z" fill="var(--fill-0, #FF0209)"/>
</g>
</g>
</svg>
