<svg viewBox="0 0 48 48" fill="none" xmlns="http://www.w3.org/2000/svg">
<g id="Group">
<path id="Vector" d="M48 24.0008C48 36.1223 39.0148 46.1434 27.3423 47.7696C26.2509 47.921 25.1343 48 24.0008 48C22.6925 48 21.4077 47.8957 20.1565 47.6939C8.72788 45.8542 0 35.9458 0 24.0008C0 10.7459 10.7459 0 23.9992 0C37.2524 0 48 10.7459 48 24.0008Z" fill="var(--fill-0, #1877F2)"/>
<path id="Vector_2" d="M27.3423 19.2703V24.4986H33.81L32.7859 31.5415H27.3423V47.7679C26.2509 47.9193 25.1343 47.9983 24.0008 47.9983C22.6925 47.9983 21.4077 47.8941 20.1565 47.6923V31.5415H14.1916V24.4986H20.1565V18.1015C20.1565 14.1328 23.3736 10.9141 27.344 10.9141V10.9174C27.3558 10.9174 27.3659 10.9141 27.3776 10.9141H33.8117V17.0051H29.6075C28.3581 17.0051 27.344 18.0191 27.344 19.2686L27.3423 19.2703Z" fill="var(--fill-0, white)"/>
</g>
</svg>
