<svg viewBox="0 0 18.6832 19.499" fill="none" xmlns="http://www.w3.org/2000/svg">
<g id="Group">
<path id="Vector" fill-rule="evenodd" clip-rule="evenodd" d="M15.8186 0.298781C15.2666 -0.0112188 14.6786 -0.0412188 14.0576 0.0357812C13.4676 0.109781 12.7486 0.295781 11.8856 0.520781L9.86661 1.04478C9.00361 1.26978 8.28561 1.45578 7.73661 1.67878C7.15761 1.91278 6.65761 2.22678 6.33361 2.77178C6.00761 3.31978 5.97561 3.90578 6.05661 4.51778C6.13361 5.09478 6.32661 5.79478 6.55661 6.62878L7.09961 8.59278C7.32961 9.42778 7.52361 10.1268 7.75461 10.6628C7.99961 11.2328 8.32661 11.7178 8.88261 12.0298C9.43461 12.3388 10.0226 12.3698 10.6446 12.2918C11.2346 12.2188 11.9536 12.0318 12.8166 11.8068L14.8356 11.2828C15.6986 11.0588 16.4166 10.8718 16.9656 10.6488C17.5446 10.4148 18.0446 10.1008 18.3686 9.55578C18.6946 9.00778 18.7266 8.42178 18.6456 7.81078C18.5686 7.23378 18.3756 6.53278 18.1456 5.69878L17.6026 3.73478C17.3726 2.90078 17.1786 2.20078 16.9476 1.66478C16.7026 1.09478 16.3736 0.609781 15.8186 0.298781ZM12.2146 1.98478C13.1396 1.74478 13.7626 1.58478 14.2446 1.52478C14.7056 1.46678 14.9266 1.51778 15.0876 1.60778C15.2446 1.69578 15.3956 1.84878 15.5706 2.25778C15.7556 2.68778 15.9236 3.28678 16.1716 4.18478L16.6856 6.04778C16.9346 6.94578 17.0986 7.54578 17.1596 8.00778C17.2176 8.44678 17.1656 8.64578 17.0796 8.78878C16.9926 8.93578 16.8346 9.08478 16.4046 9.25878C15.9566 9.43978 15.3346 9.60378 14.4096 9.84378L12.4896 10.3428C11.5646 10.5828 10.9416 10.7428 10.4596 10.8028C9.99761 10.8618 9.77761 10.8108 9.61661 10.7208C9.45961 10.6328 9.30861 10.4788 9.13361 10.0708C8.94861 9.64078 8.78061 9.04078 8.53261 8.14278L8.01861 6.28078C7.76961 5.38078 7.60561 4.78178 7.54461 4.32078C7.48661 3.88078 7.53861 3.68278 7.62461 3.53878C7.71161 3.39178 7.86961 3.24278 8.29961 3.06878C8.74761 2.88778 9.36961 2.72478 10.2946 2.48378L12.2146 1.98478Z" fill="var(--fill-0, #1B8918)"/>
<path id="Vector_2" fill-rule="evenodd" clip-rule="evenodd" d="M0.928643 2.47472C0.739189 2.42828 0.539092 2.45747 0.370805 2.55611C0.202517 2.65475 0.0792806 2.81507 0.0272405 3.00306C-0.0247996 3.19106 -0.00154859 3.39193 0.0920608 3.56307C0.18567 3.7342 0.342272 3.86214 0.528643 3.91972L2.23164 4.39272C2.65764 4.51072 2.97464 4.83272 3.08264 5.22372L5.03464 12.2867C4.95931 12.3014 4.88431 12.3187 4.80964 12.3387C2.83264 12.8517 1.62464 14.8407 2.16664 16.8057C2.70664 18.7607 4.76064 19.8877 6.72964 19.3757C8.45364 18.9287 9.59264 17.3597 9.49664 15.6637L17.9166 13.4757C18.012 13.451 18.1015 13.4077 18.1801 13.3483C18.2587 13.289 18.3249 13.2147 18.3748 13.1298C18.4247 13.0449 18.4574 12.951 18.471 12.8534C18.4846 12.7558 18.4789 12.6566 18.4541 12.5612C18.4294 12.4659 18.3861 12.3764 18.3267 12.2977C18.2674 12.2191 18.1931 12.153 18.1082 12.1031C18.0233 12.0532 17.9294 12.0205 17.8318 12.0069C17.7343 11.9932 17.635 11.999 17.5396 12.0237L9.10164 14.2167C8.84915 13.7344 8.49386 13.3133 8.06085 12.9833C7.62784 12.6533 7.12767 12.4223 6.59564 12.3067L4.52864 4.82372C4.4015 4.37371 4.16007 3.96425 3.82783 3.63517C3.49559 3.30608 3.08385 3.06857 2.63264 2.94572L0.928643 2.47472ZM5.18764 13.7897C6.39964 13.4757 7.61564 14.1787 7.92764 15.3087C8.23764 16.4287 7.55764 17.6117 6.35364 17.9247C5.14164 18.2397 3.92564 17.5357 3.61364 16.4057C3.30364 15.2857 3.98364 14.1027 5.18764 13.7897Z" fill="var(--fill-0, #1B8918)"/>
</g>
</svg>
