<svg viewBox="0 0 24 24" fill="none" xmlns="http://www.w3.org/2000/svg">
<g id="solar:clock-circle-outline">
<path id="Vector" fill-rule="evenodd" clip-rule="evenodd" d="M11.9996 2.74968C9.54637 2.74968 7.19359 3.72423 5.45888 5.45894C3.72417 7.19365 2.74962 9.54643 2.74962 11.9997C2.74962 14.4529 3.72417 16.8057 5.45888 18.5404C7.19359 20.2751 9.54637 21.2497 11.9996 21.2497C14.4529 21.2497 16.8056 20.2751 18.5404 18.5404C20.2751 16.8057 21.2496 14.4529 21.2496 11.9997C21.2496 9.54643 20.2751 7.19365 18.5404 5.45894C16.8056 3.72423 14.4529 2.74968 11.9996 2.74968ZM1.24962 11.9997C1.24962 6.06268 6.06262 1.24968 11.9996 1.24968C17.9366 1.24968 22.7496 6.06268 22.7496 11.9997C22.7496 17.9367 17.9366 22.7497 11.9996 22.7497C6.06262 22.7497 1.24962 17.9367 1.24962 11.9997ZM11.9996 7.24968C12.1985 7.24968 12.3893 7.3287 12.5299 7.46935C12.6706 7.61 12.7496 7.80077 12.7496 7.99968V11.6897L15.0296 13.9697C15.1033 14.0383 15.1624 14.1211 15.2034 14.2131C15.2444 14.3051 15.2664 14.4045 15.2682 14.5052C15.27 14.6059 15.2515 14.7059 15.2137 14.7993C15.176 14.8927 15.1199 14.9775 15.0487 15.0487C14.9774 15.1199 14.8926 15.1761 14.7992 15.2138C14.7058 15.2515 14.6058 15.27 14.5051 15.2683C14.4044 15.2665 14.3051 15.2445 14.2131 15.2035C14.1211 15.1625 14.0383 15.1034 13.9696 15.0297L11.4696 12.5297C11.3289 12.3892 11.2498 12.1985 11.2496 11.9997V7.99968C11.2496 7.80077 11.3286 7.61 11.4693 7.46935C11.6099 7.3287 11.8007 7.24968 11.9996 7.24968Z" fill="var(--fill-0, #1B8918)"/>
</g>
</svg>
