<svg viewBox="0 0 48 48" fill="none" xmlns="http://www.w3.org/2000/svg">
<g id="Group">
<path id="Vector" d="M24.0547 0H23.9453C10.7207 0 0 10.7207 0 23.9453V24.0547C0 37.2793 10.7207 48 23.9453 48H24.0547C37.2793 48 48 37.2793 48 24.0547V23.9453C48 10.7207 37.2793 0 24.0547 0Z" fill="var(--fill-0, #00B0F2)"/>
<path id="Vector_2" d="M9.09109 23.1819C9.15836 23.1483 9.22566 23.1163 9.29124 23.0861C10.4314 22.558 11.5867 22.0636 12.7404 21.5692C12.8026 21.5692 12.9068 21.4969 12.9657 21.4733C13.0548 21.4347 13.1439 21.3977 13.2331 21.359L13.746 21.1387C14.0891 20.9924 14.4304 20.8461 14.7735 20.6998C15.4579 20.4072 16.1424 20.1146 16.8268 19.8203C18.1957 19.235 19.5663 18.6481 20.9352 18.0629C22.304 17.4777 23.6746 16.8908 25.0435 16.3056C26.4124 15.7203 27.7829 15.1334 29.1518 14.5482C30.5207 13.963 31.8913 13.3761 33.2601 12.7909C33.5645 12.6597 33.8941 12.4646 34.2204 12.4074C34.4945 12.3587 34.7619 12.2645 35.0376 12.2124C35.5606 12.1132 36.1375 12.0728 36.6386 12.2897C36.8118 12.3654 36.9716 12.4713 37.1044 12.6042C37.7401 13.2331 37.651 14.2657 37.5164 15.1503C36.5797 21.3153 35.6431 27.482 34.7047 33.647C34.5769 34.4929 34.402 35.4211 33.7343 35.9559C33.1693 36.4083 32.3655 36.4587 31.6676 36.267C30.9697 36.0736 30.3542 35.6683 29.7505 35.2698C27.2465 33.6117 24.7408 31.9535 22.2368 30.2954C21.6415 29.9019 20.9789 29.3873 20.9856 28.6726C20.989 28.2421 21.2462 27.8587 21.5086 27.5173C23.6847 24.6786 26.8244 22.7279 29.1602 20.0204C29.4898 19.6386 29.7488 18.9492 29.2964 18.7289C29.0274 18.5977 28.7179 18.7759 28.4724 18.9458C25.3848 21.0899 22.299 23.2357 19.2114 25.3799C18.2041 26.0794 17.148 26.7992 15.9339 26.9707C14.8475 27.1255 13.7544 26.8227 12.7034 26.5133C11.8222 26.2543 10.9426 25.9886 10.0665 25.7145C9.60065 25.5699 9.11969 25.4135 8.75981 25.0856C8.39993 24.7577 8.19311 24.2061 8.41005 23.7688C8.54626 23.4947 8.81029 23.3215 9.08777 23.1802L9.09109 23.1819Z" fill="var(--fill-0, #FEFFFC)"/>
</g>
</svg>
