<svg preserveAspectRatio="none" width="100%" height="100%" overflow="visible" style="display: block;" viewBox="0 0 16.6667 16.6667" fill="none" xmlns="http://www.w3.org/2000/svg">
<path id="Vector" d="M8.33333 16.6667C3.73096 16.6667 0 12.9357 0 8.33333C0 3.73096 3.73096 0 8.33333 0C12.9357 0 16.6667 3.73096 16.6667 8.33333C16.6667 12.9357 12.9357 16.6667 8.33333 16.6667ZM8.33333 15C12.0152 15 15 12.0152 15 8.33333C15 4.65143 12.0152 1.66667 8.33333 1.66667C4.65143 1.66667 1.66667 4.65143 1.66667 8.33333C1.66667 12.0152 4.65143 15 8.33333 15ZM9.16667 7.08333V10.8333H10V12.5H6.66667V10.8333H7.5V8.75H6.66667V7.08333H9.16667ZM9.58333 5C9.58333 5.69036 9.02367 6.25 8.33333 6.25C7.643 6.25 7.08333 5.69036 7.08333 5C7.08333 4.30964 7.643 3.75 8.33333 3.75C9.02367 3.75 9.58333 4.30964 9.58333 5Z" fill="var(--fill-0, #2B7FFF)"/>
</svg>
