<svg preserveAspectRatio="none" width="100%" height="100%" overflow="visible" style="display: block;" viewBox="0 0 13.3333 17.5" fill="none" xmlns="http://www.w3.org/2000/svg">
<path id="Vector" d="M0 17.5C0 13.8181 2.98477 10.8333 6.66667 10.8333C10.3486 10.8333 13.3333 13.8181 13.3333 17.5H11.6667C11.6667 14.7386 9.42808 12.5 6.66667 12.5C3.90524 12.5 1.66667 14.7386 1.66667 17.5H0ZM6.66667 10C3.90417 10 1.66667 7.7625 1.66667 5C1.66667 2.2375 3.90417 0 6.66667 0C9.42917 0 11.6667 2.2375 11.6667 5C11.6667 7.7625 9.42917 10 6.66667 10ZM6.66667 8.33333C8.50833 8.33333 10 6.84167 10 5C10 3.15833 8.50833 1.66667 6.66667 1.66667C4.825 1.66667 3.33333 3.15833 3.33333 5C3.33333 6.84167 4.825 8.33333 6.66667 8.33333Z" fill="var(--fill-0, #99A1AF)"/>
</svg>
